/* XPM */
static char *floor[] = {
/* columns rows colors chars-per-pixel */
"64 64 4 1 ",
"  c #D1B6D5",
". c #E4C3E7",
"X c #E2C8E5",
"o c #E3CCE6",
/* pixels */
"                                                                ",
" ooX..XXo ooX..XXo ooX..XXo ooX..XXo ooX..XXo ooX..XXo ooX..XXo ",
" o..XXooo o..XXooo o..XXooo o..XXooo o..XXooo o..XXooo o..XXooo ",
" X.Xooooo X.Xooooo X.Xooooo X.Xooooo X.Xooooo X.Xooooo X.Xooooo ",
" .Xoooooo .Xoooooo .Xoooooo .Xoooooo .Xoooooo .Xoooooo .Xoooooo ",
" .Xoooooo .Xoooooo .Xoooooo .Xoooooo .Xoooooo .Xoooooo .Xoooooo ",
" Xooooooo Xooooooo Xooooooo Xooooooo Xooooooo Xooooooo Xooooooo ",
" Xooooooo Xooooooo Xooooooo Xooooooo Xooooooo Xooooooo Xooooooo ",
" oooooooo oooooooo oooooooo oooooooo oooooooo oooooooo oooooooo ",
"                                                                ",
" ooX..XXo ooX..XXo ooX..XXo ooX..XXo ooX..XXo ooX..XXo ooX..XXo ",
" o..XXooo o..XXooo o..XXooo o..XXooo o..XXooo o..XXooo o..XXooo ",
" X.Xooooo X.Xooooo X.Xooooo X.Xooooo X.Xooooo X.Xooooo X.Xooooo ",
" .Xoooooo .Xoooooo .Xoooooo .Xoooooo .Xoooooo .Xoooooo .Xoooooo ",
" .Xoooooo .Xoooooo .Xoooooo .Xoooooo .Xoooooo .Xoooooo .Xoooooo ",
" Xooooooo Xooooooo Xooooooo Xooooooo Xooooooo Xooooooo Xooooooo ",
" Xooooooo Xooooooo Xooooooo Xooooooo Xooooooo Xooooooo Xooooooo ",
" oooooooo oooooooo oooooooo oooooooo oooooooo oooooooo oooooooo ",
"                                                                ",
" ooX..XXo ooX..XXo ooX..XXo ooX..XXo ooX..XXo ooX..XXo ooX..XXo ",
" o..XXooo o..XXooo o..XXooo o..XXooo o..XXooo o..XXooo o..XXooo ",
" X.Xooooo X.Xooooo X.Xooooo X.Xooooo X.Xooooo X.Xooooo X.Xooooo ",
" .Xoooooo .Xoooooo .Xoooooo .Xoooooo .Xoooooo .Xoooooo .Xoooooo ",
" .Xoooooo .Xoooooo .Xoooooo .Xoooooo .Xoooooo .Xoooooo .Xoooooo ",
" Xooooooo Xooooooo Xooooooo Xooooooo Xooooooo Xooooooo Xooooooo ",
" Xooooooo Xooooooo Xooooooo Xooooooo Xooooooo Xooooooo Xooooooo ",
" oooooooo oooooooo oooooooo oooooooo oooooooo oooooooo oooooooo ",
"                                                                ",
" ooX..XXo ooX..XXo ooX..XXo ooX..XXo ooX..XXo ooX..XXo ooX..XXo ",
" o..XXooo o..XXooo o..XXooo o..XXooo o..XXooo o..XXooo o..XXooo ",
" X.Xooooo X.Xooooo X.Xooooo X.Xooooo X.Xooooo X.Xooooo X.Xooooo ",
" .Xoooooo .Xoooooo .Xoooooo .Xoooooo .Xoooooo .Xoooooo .Xoooooo ",
" .Xoooooo .Xoooooo .Xoooooo .Xoooooo .Xoooooo .Xoooooo .Xoooooo ",
" Xooooooo Xooooooo Xooooooo Xooooooo Xooooooo Xooooooo Xooooooo ",
" Xooooooo Xooooooo Xooooooo Xooooooo Xooooooo Xooooooo Xooooooo ",
" oooooooo oooooooo oooooooo oooooooo oooooooo oooooooo oooooooo ",
"                                                                ",
" ooX..XXo ooX..XXo ooX..XXo ooX..XXo ooX..XXo ooX..XXo ooX..XXo ",
" o..XXooo o..XXooo o..XXooo o..XXooo o..XXooo o..XXooo o..XXooo ",
" X.Xooooo X.Xooooo X.Xooooo X.Xooooo X.Xooooo X.Xooooo X.Xooooo ",
" .Xoooooo .Xoooooo .Xoooooo .Xoooooo .Xoooooo .Xoooooo .Xoooooo ",
" .Xoooooo .Xoooooo .Xoooooo .Xoooooo .Xoooooo .Xoooooo .Xoooooo ",
" Xooooooo Xooooooo Xooooooo Xooooooo Xooooooo Xooooooo Xooooooo ",
" Xooooooo Xooooooo Xooooooo Xooooooo Xooooooo Xooooooo Xooooooo ",
" oooooooo oooooooo oooooooo oooooooo oooooooo oooooooo oooooooo ",
"                                                                ",
" ooX..XXo ooX..XXo ooX..XXo ooX..XXo ooX..XXo ooX..XXo ooX..XXo ",
" o..XXooo o..XXooo o..XXooo o..XXooo o..XXooo o..XXooo o..XXooo ",
" X.Xooooo X.Xooooo X.Xooooo X.Xooooo X.Xooooo X.Xooooo X.Xooooo ",
" .Xoooooo .Xoooooo .Xoooooo .Xoooooo .Xoooooo .Xoooooo .Xoooooo ",
" .Xoooooo .Xoooooo .Xoooooo .Xoooooo .Xoooooo .Xoooooo .Xoooooo ",
" Xooooooo Xooooooo Xooooooo Xooooooo Xooooooo Xooooooo Xooooooo ",
" Xooooooo Xooooooo Xooooooo Xooooooo Xooooooo Xooooooo Xooooooo ",
" oooooooo oooooooo oooooooo oooooooo oooooooo oooooooo oooooooo ",
"                                                                ",
" ooX..XXo ooX..XXo ooX..XXo ooX..XXo ooX..XXo ooX..XXo ooX..XXo ",
" o..XXooo o..XXooo o..XXooo o..XXooo o..XXooo o..XXooo o..XXooo ",
" X.Xooooo X.Xooooo X.Xooooo X.Xooooo X.Xooooo X.Xooooo X.Xooooo ",
" .Xoooooo .Xoooooo .Xoooooo .Xoooooo .Xoooooo .Xoooooo .Xoooooo ",
" .Xoooooo .Xoooooo .Xoooooo .Xoooooo .Xoooooo .Xoooooo .Xoooooo ",
" Xooooooo Xooooooo Xooooooo Xooooooo Xooooooo Xooooooo Xooooooo ",
" Xooooooo Xooooooo Xooooooo Xooooooo Xooooooo Xooooooo Xooooooo ",
" oooooooo oooooooo oooooooo oooooooo oooooooo oooooooo oooooooo ",
"                                                                "
};
