/* XPM */
static char *player[] = {
/* columns rows colors chars-per-pixel */
"24 48 35 1 ",
"  c #101010",
". c #3B1C1C",
"X c #352315",
"o c #1E1E20",
"O c gray16",
"+ c #2A2A2C",
"@ c #303032",
"# c #39393B",
"$ c #462727",
"% c #472B2B",
"& c #492C2C",
"* c #463121",
"= c #4D3420",
"- c #5B3F29",
"; c #543838",
": c #663931",
"> c #5A4331",
", c #1D2F4D",
"< c #273D5F",
"1 c #354A6A",
"2 c #495B77",
"3 c #C28975",
"4 c #CC927E",
"5 c #556681",
"6 c gray70",
"7 c #D99D88",
"8 c #EABDAF",
"9 c #E4C0B4",
"0 c #EECBBF",
"q c #DFD9D5",
"w c gray87",
"e c #F5D6CC",
"r c #FADDD3",
"t c white",
"y c None",
/* pixels */
"yyyyyyyy........yyyyyyyy",
"yyyyyy..;;$$$;;;..yyyyyy",
"yyyy..%;;%%;;$$;;.yyyyyy",
"yyyy.$%;%$$%;$%$;;.yyyyy",
"yyy.;$$%$;;$%;$%$;;.yyyy",
"yyy.%;$$%..;$%%$%$%;.yyy",
"yy.;$%;;..3.;$$%;%$$.yyy",
"yy.%$%;.;.34.;;$;;$%;.yy",
"yy.$%;.;..474...$$%$$.yy",
"yy.$%;..44788744...%$;.y",
"yy.%;.7.78eeee877.7.;$;.",
"yy.%...&&eeeeee&&.77.;$.",
"y.$%.**XX&erre&XX*.7.;$.",
"y.%.7q-=t8rerr8=t-q7.$.y",
"y...:7q>>rrrerr>>q7:$.yy",
".yy.:7er8rr0err8re7:.yyy",
"yyyy.:7errrrrrrre7:.yyyy",
"yyyyyy:7er999rre7:.yyyyy",
"yyyyyyy:77erre77:.;.yyyy",
"yyyyyyoo::7ee7::.;$.yyyy",
"yyyyyo##++:77:++.$;;.yyy",
"yyyyo####+r::r+.$;$.yyyy",
"yyyyo####oorroo.;$.oyyyy",
"yyyyo#####oooo#.;.#oyyyy",
"yyyo###o##6##6.$.###oyyy",
"yyyo##o###6##6..#o##oyyy",
"yyyo##o##w####.##o##oyyy",
"yyyo#@o####@@####o@#oyyy",
"yyyo##oo+@@##@@+oo##oyyy",
"yyo###oo########oo###oyy",
"yyo@##oo########oo###oyy",
"yyo+##ooo######ooo@#+oyy",
"yy:7+#y,,oooooo,,yo+7:yy",
"y:7rroy,<111111<,yorr7:y",
"y:7777y,22212222,y7777:y",
"yy:::yy,15515551,yy:::yy",
"yyyyyyy,25521552,yyyyyyy",
"yyyyyyy,522,,225,yyyyyyy",
"yyyyyyy,55,yy,55,yyyyyyy",
"yyyyyyy,55,yy,55,yyyyyyy",
"yyyyyyy,25,yy,52,yyyyyyy",
"yyyyyyy,52,yy,25,yyyyyyy",
"yyyyyyy,55,yy,55,yyyyyyy",
"yyyyyyy,25,yy,52,yyyyyyy",
"yyyyyyy,22,yy,22,yyyyyyy",
"yyyyyy O,,,yy,,,O yyyyyy",
"yyyyy OOOO yy OOOO yyyyy",
"yyyyyy    yyyy    yyyyyy"
};
