/* XPM */
static char *player[] = {
/* columns rows colors chars-per-pixel */
"24 48 38 1 ",
"  c #101010",
". c #3B1C1C",
"X c #352315",
"o c #1E1E20",
"O c gray16",
"+ c #2A2A2C",
"@ c #303032",
"# c #39393B",
"$ c #462727",
"% c #472B2B",
"& c #492C2C",
"* c #463121",
"= c #4D3420",
"- c #5B3F29",
"; c #543838",
": c #663931",
"> c #5A4331",
", c #1D2F4D",
"< c #273D5F",
"1 c #354A6A",
"2 c #495B77",
"3 c #C28975",
"4 c #CC927E",
"5 c #556681",
"6 c gray70",
"7 c #D99D88",
"8 c #EABDAF",
"9 c #E4C0B4",
"0 c #EECBBF",
"q c #D1B6D5",
"w c #DFD9D5",
"e c gray87",
"r c #F5D6CC",
"t c #FADDD3",
"y c #E4C3E7",
"u c #E2C8E5",
"i c #E3CCE6",
"p c white",
/* pixels */
"iiiiiiiq........qiiiiiii",
"qqqqqq..;;$$$;;;..qqqqqq",
"iuyy..%;;%%;;$$;;.iuyyuu",
"yyuu.$%;%$$%;$%$;;.yuuii",
"yui.;$$%$;;$%;$%$;;.iiii",
"uii.%;$$%..;$%%$%$%;.iii",
"ui.;$%;;..3.;$$%;%$$.iii",
"ii.%$%;.;.34.;;$;;$%;.ii",
"ii.$%;.;..474...$$%$$.ii",
"ii.$%;..44788744...%$;.i",
"qq.%;.7.78rrrr877.7.;$;.",
"iu.%...&&rrrrrr&&.77.;$.",
"y.$%.**XX&rttr&XX*.7.;$.",
"y.%.7w-=p8trtt8=p-w7.$.i",
"u...:7w>>tttrtt>>w7:$.ii",
".ii.:7rt8tt0rtt8tr7:.iii",
"iiii.:7rttttttttr7:.iiii",
"iiiiii:7rt999ttr7:.iiiii",
"iiiiiii:77rttr77:.;.iiii",
"qqqqqqoo::7rr7::.;$.qqqq",
"iuyyuo##++:77:++.$;;.yuu",
"yyuuo####+t::t+.$;$.uuii",
"yuiio####oottoo.;$.oiiii",
"uiiio#####oooo#.;.#oiiii",
"uiio###o##6##6.$.###oiii",
"iiio##o###6##6..#o##oiii",
"iiio##o##e####.##o##oiii",
"iiio#@o####@@####o@#oiii",
"qqqo##oo+@@##@@+oo##oqqq",
"iuo###oo########oo###ouu",
"yyo@##oo########oo###oii",
"yuo+##ooo######ooo@#+oii",
"ui:7+#i,,oooooo,,yo+7:ii",
"u:7ttoi,<111111<,yott7:i",
"i:7777i,22212222,u7777:i",
"ii:::ii,15515551,ui:::ii",
"iiiiiii,25521552,iiiiiii",
"qqqqqqq,522,,225,qqqqqqq",
"iuyyuui,55,yy,55,iiuyyuu",
"yyuuiii,55,uu,55,iyyuuii",
"yuiiiii,25,ii,52,uyuiiii",
"uiiiiii,52,ii,25,yuiiiii",
"uiiiiii,55,ii,55,yuiiiii",
"iiiiiii,25,ii,52,uiiiiii",
"iiiiiii,22,ii,22,uiiiiii",
"iiiiii O,,,ii,,,O iiiiii",
"qqqqq OOOO qq OOOO qqqqq",
"iuyyuu    uyyu    iuyyuu"
};
