/* XPM */
static char *exit[] = {
/* columns rows colors chars-per-pixel */
"64 64 114 2 ",
"   c #332A3B",
".  c #342B3B",
"X  c #342B3C",
"o  c #342B3D",
"O  c #362B3C",
"+  c #362C3C",
"@  c #362D3D",
"#  c #362D3E",
"$  c #372E40",
"%  c #382E40",
"&  c #3A3043",
"*  c #3C3345",
"=  c #3D3346",
"-  c #42354D",
";  c #42374C",
":  c #44374F",
">  c #45384E",
",  c #45384F",
"<  c #45394F",
"1  c #5D3D4B",
"2  c #403750",
"3  c #453750",
"4  c #473B52",
"5  c #493D55",
"6  c #4A3D55",
"7  c #483D59",
"8  c #493E5B",
"9  c #4D3F58",
"0  c #4D3F59",
"q  c #493F5C",
"w  c #4D4158",
"e  c #4E405A",
"r  c #4F425C",
"t  c #50425C",
"y  c #50425D",
"u  c #51435D",
"i  c #514C5A",
"p  c #56525F",
"a  c #544660",
"s  c #564863",
"d  c #574964",
"f  c #584A64",
"g  c #5A4C67",
"h  c #564A6C",
"j  c #5D4F6A",
"k  c #575361",
"l  c #5A5564",
"z  c #5D5966",
"x  c #5C586B",
"c  c #7A5E61",
"v  c #7D5C60",
"b  c #65616D",
"n  c #7E6164",
"m  c #646074",
"M  c #6A6771",
"N  c #6B6872",
"B  c #6F6B76",
"V  c #6E6B7F",
"C  c #A36677",
"Z  c #A46674",
"A  c #B3707E",
"S  c #B5717F",
"D  c #6B5D84",
"F  c #6D5E87",
"G  c #6D5F87",
"H  c #6E5F88",
"J  c #706D81",
"K  c #72648C",
"L  c #776A8D",
"P  c #786C8F",
"I  c #787781",
"U  c #84828C",
"Y  c #86848E",
"T  c #8D8BA1",
"R  c #9C9BA4",
"E  c #9F9EB2",
"W  c #B2AFBF",
"Q  c #E0A6A3",
"!  c #E3A8A2",
"~  c #E3A8A3",
"^  c #E4A9A5",
"/  c #E8ABA6",
"(  c #E3AFAD",
")  c #E5B1AC",
"_  c #F6B6B0",
"`  c #F9B8B2",
"'  c #FBBAB3",
"]  c #F5BDB8",
"[  c #FCC2BC",
"{  c #FEC4BE",
"}  c #A08CCC",
"|  c #A38ECF",
" . c #A48FD0",
".. c #A490D1",
"X. c #B9B7C4",
"o. c #CCBAF3",
"O. c #C8B2F8",
"+. c #C8B1FA",
"@. c #CBB6F9",
"#. c #CAB2FF",
"$. c #CBB4FE",
"%. c #CFB8FF",
"&. c #CFB9FF",
"*. c #D0BEF7",
"=. c #D2BFFB",
"-. c #D1BAFF",
";. c #D1BBFF",
":. c #D2BCFF",
">. c #D4BEFF",
",. c #C6C4D1",
"<. c #D4C1FB",
"1. c #D5C2FD",
"2. c #D7C4FF",
"3. c #D8C5FF",
/* pixels */
"S S S S S S S S S S S S S S S S A A A S S S S S S S S S S S S S S S S S S S S S A S S S S S A A A S S S S S S S S S S S S S S S ",
"' ' ' ' ' ' ' ' ' { { { { / ! ! C ) ^ ^ ^ ! ! ^ ^ Q ) ) ) ~ ~ ~ ~ ~ ~ ~ ~ ~ ~ ~ Q ) ) ) ) ^ ^ Q C ) ' ' ' ' ' ' ' ' { { { ' ' ' ",
"{ { { { { { { ' ' ' ' ' ' c $ % $ $ % % @ $ $ $ % % @ @ % % % % @ # % % % % # # $ $ % @ $ $ $ $ o o { { { { { { ' ' ' ' ' { { { ",
"' ' ' ' ' ' ' ' ' ' { { ' v & 2 7 e e 7 7 q q 7 q q 7 q q 7 q % q 7 q q q q 7 0 7 e e 7 7 e e 7 $ o ' { { { { { { { { ' ' ' ' ' ",
"' ' ' ' ' ' ' ' ' ' ' ' ' n @  .-.%.%.%.-.;.%.%.-.-.%.%.%.%.>.K #.:.%.%.:.-.%.%.;.-.%.%.%.-.>.O.; @ ' ' ' ' { { ' ' ' { { { ' ' ",
"{ { { { { ' ' ' ' { { { { n @ | 1.3.1.3.1.3.1.3.3.3.3.3.3.1.3.P #.3.>.3.3.3.3.1.3.3.1.2.1.3.1.o.3 o [ { ' ' ' ' { { { { { { { { ",
"{ { ' ' ' ' ' ' ' ' ' ' ' v & h G G G H H H G G G H G G G G K 7 F F F F F F G G H H G G H H G G 6 @ ' [ [ { ' ' ' ' ' { { { { { ",
"' ' ' ' { { { { ' ' ' ' ' v @ ..;.;.;.;.;.-.;.;.-.-.>.-.-.-.-.L #.:.:.:.:.:.:.:.;.;.-.;.;.-.;.@.3   ` ' ' ' ' ' ' ' ' ' ' ' ' ' ",
"S S S S S S S S S S S S S 1 @ | =.=.=.=.<.<.<.<.<.<.<.1.<.1.1.L O.<.<.<.;.<.<.<.<.<.<.<.<.<.<.o.:   S S S S S S S S S S S S S S ",
"' ' ' { { { { { S ' ' ' ' v % ; 6 7 6 6 6 6 6 6 6 6 6 6 6 6 6 7 6 6 6 6 5 7 6 6 6 6 6 6 6 6 6 6 4 o ] { { { { { { { { { { ' ' ' ",
"{ { ' ' ' ' ' { S { { { { v = = = = = = - = = = = = = = = = = = = = - & = = = = = = = = = = ; = -   Q ' ' ' ' ' ' ' ' ' ' ' ' ' ",
"{ { { { ' ' ' ' S ' { { { n = @   $ o $   o o o o o o o o o o @ o o . . $ o o $ o o o o o   o 7 = . Q ' ' ' ' { { ' ' { { { { { ",
"' ' ' ' { { ' ' S ' ' ' ' v = o y d d d d d d d d d d d d d d d f f f a f f f d s f d d d d f y = . / [ { { ' { { { ' { { { ' ' ",
"' ' { { { ' ' ' S { { ' ' v = o y j j j j j j j j j j j j j j j j j j j j j j j j j j j j j j y ;   ) { { { ' ' ' ' ' { { { { { ",
"{ { { ' ' ' ' { S { { { { n =   y j j j j j j j j j j j j j j j j j j j j j j j j j j j j j j y = @ Q ' { { { { { { ' ' ' ' { { ",
"' ' ' ' { { { { S ' ' ' { n = o r j j j j j j j j j j j j j j j j j j j j j j j j j j j j j j y = . Q ' ' ' ' ' ' { { { { ' ' ' ",
"S S S S S S S S S S S S S 1 = o r j j j j j j j j j j j j j j j j j j j j j j j j j j j j j j u = . C S S S S S S S S S S S S S ",
"S ' { { ' ' ' { { { { { { n =   r j j j j j j j j j j j j j j j j j j j j j j j j j j j j j j u = . ! { { { { { { ' ' ' ' ' ' ' ",
"S ' ' { { { { { ' ' ' ' ' v = o y j j j j j j j j j j j j j j j j j j j j j j j j j j j j j j u = @ Q ' ' ' { { { { { { { { { { ",
"S { ' ' ' ' ' ' ' ' ' ' { n = @ y j j j j j j j j j j j j j j j j j j j j j j j j j j j j j j u = @ ) { { ' ' ' ' ' { { ' ' ' ' ",
"S { ' { { { { { { { { { [ v = @ y j j j j j j j j j j j j j j j j j j j j j j j j j j j j j j u = o Q ' ' { { { { ' ' ' ' ' ' { ",
"S { { { { ' ' ' ' ' ' ' ' n =   y j j j j j j j j j j j j j j j j j j j j j j j j j j j j j j u = . Q { { { { { { { { { { { { { ",
"S ' { ' ' ' ' ' ' ' ' ' ' v = o y j j j j j j j j j j j j j j j j j j j j j j j j j j j j j j u = . ) [ { ' ' ' ' ' ' ' ' ' { { ",
"S ' ' ' { { { { { { { { { v =   y j j j j j j j j j j j j j j j j j j j j j j j j j j j j j j u = @ Q ' ' ' { { { { ' ' ' ' ' ' ",
"S S S S S S S S S S S S S 1 = o y j j j j j j j j j j j j j j j j j j j j j j j j j j j j j j u = o C S S S S S S S S S S S S S ",
"' ' ' ' ' ' { { { ' ' { [ n = @ y j j j j j j j j j j j j j j j j j j j j j j j j j j j j j j u = o Q ' ' ' { { S { { { { ' ' ' ",
"{ { { { ' ' ' ' { { { ' ' v = @ y j j j j j j j j j j j j j j j j j j j j j j j j j j j j j j u = @ Q ' ' ' ' ' S ' ' ' ' ' ' ' ",
"' ' ' { { { { { { { ' ' ' n =   y j j j j j j j j j j j j j j j j j j j j j j j j j j j j j j u = o ) ' ' ' ' ' S { { { { { { { ",
"{ ' { { { { ' ' ' ' ' { { n = o y j j j j j j j j j j j j j j j j j j j j j j j j j j j j j j u = # ( [ { { ' { S ' ' ' { { { { ",
"' ' ' ' ' ' ' ' ' { { { { n =   y j j j j j j j j j j j j j j j j j j j j j j j j j j j j j j u = O Q ' ' ' { { S { { ' ' ' { { ",
"' ' ' ' { { { { { { { ' ' v = @ y j j j j j j j j j j j j j j j j j j j j j j j j j j j j j j u = # Q ' ' ' ' ' S ' { { { ' ' ' ",
"{ { { { { ' ' ' ' ' ' ' ' v =   y j j j j j j j j j j j j j j j j j j j j j j j j j j j j j j y = . Q { { { { { S ' ' ' { { { { ",
"S S S S S S S S S S S S S 1 =   y j j j j j j j j j j j j j j j j j j j j j j j j j j j j j j u : . Z S S S S S S S S S S S S S ",
"' ' ' ' ' ' ' ' ' { { { { v = @ y j j j j j j j j j j j j j j j j j j j j j j j j j j j j j j y & . Q ' ' ' ' ' ' ' { { { ' ' ' ",
"{ { { { { { { ' ' ' ' ' ' n =   y j j j j j j j j j j j j j j j j j j j j j j j j j j j j j j y = @ / { { { { { ' ' ' ' ' { { { ",
"' ' ' ' ' ' ' ' ' ' { { ' v = o y j j j j j j j j j j j j j j j j j j j j j j j j u 7 t y 6 j y = @ Q { { { { { { { { ' ' ' ' ' ",
"' ' ' ' ' ' ' ' ' ' ' ' ' n =   y j j j j j j j j j j j j j j j j j j j j j j j u Y R R R R B t = @ Q ' ' ' { { ' ' ' { { { ' ' ",
"{ { { { { ' ' ' ' { { { { n = @ y j j j j j j j j j j j j j j j j j j j j j g b b M N N z b I t = @ ( { ' ' ' ' { { { { { { { { ",
"{ { ' ' ' ' ' ' ' ' ' ' ' v =   y j j j j j j j j j j j j j j j j j j j j j , X.,.,.,.,.W x J 0 = @ Q { { { ' ' ' ' ' { { { { { ",
"' ' ' ' { { { { ' ' ' ' ' v = o y j j j j j j j j j j j j j j j j j j j j j a i i p k k l E J 6 = . Q ' ' ' ' ' ' ' ' ' ' ' ' ' ",
"S S S S S S S S S S S S S 1 =   y j j j j j j j j j j j j j j j j j j j j j j s 7 U T T T T m t = . C S S S S S S S S S S S S S ",
"' ' ' { { { { { S ' ' ' ' v = @ y j j j j j j j j j j j j j j j j j j j j j j j j r : : , , 7 u = . ( { { { { { { { { { { ' ' ' ",
"{ { ' ' ' ' ' { S { { { { v = . y j j j j j j j j j j j j j j j j j j j j j j j j j j j j g j u = @ Q ' ' ' ' ' ' ' ' ' ' ' ' ' ",
"{ { { { ' ' ' ' S ' { { { n =   y j j j j j j j j j j j j j j j j j j j j j j j j j j j j j j u = . Q ' ' ' ' { { ' ' { { { { { ",
"' ' ' ' { { ' ' S ' ' ' ' v =   y j j j j j j j j j j j j j j j j j j j j j j j j j j j j j j u = . ) [ { { ' { { { ' { { { ' ' ",
"' ' { { { ' ' ' S { { ' ' v = o y j j j j j j j j j j j j j j j j j j j j j j j j j j j j j j y = @ ) { { { ' ' ' ' ' { { { { { ",
"{ { { ' ' ' ' { S { { { { n = @ y j j j j j j j j j j j j j j j j j j j j j j j j j j j j j j t = o Q ' { { { { { { ' ' ' ' { { ",
"' ' ' ' { { { { S ' ' ' { n = @ y j j j j j j j j j j j j j j j j j j j j j j j j j j j j j j t = o Q ' ' ' ' ' ' { { { { ' ' ' ",
"S S S S S S S S S S S S S 1 = o y j j j j j j j j j j j j j j j j j j j j j j j j j j j j j j u = . Z S S S S S S S S S S S S S ",
"S ' { { ' ' ' { { { { { { n =   y j j j j j j j j j j j j j j j j j j j j j j j j j j j j j j u = # Q [ { { { { { ' ' ' ' ' ' ' ",
"S ' ' { { { { { ' ' ' ' ' v = @ y j j j j j j j j j j j j j j j j j j j j j j j j j j j j j j u = @ Q ' ' ' { { { { { { { { { { ",
"S { ' ' ' ' ' ' ' ' ' ' { n =   y j j j j j j j j j j j j j j j j j j j j j j j j j j j j j j u = @ ) { { ' ' ' ' ' { { ' ' ' ' ",
"S { ' { { { { { { { { { { v = o y j j j j j j j j j j j j j j j j j j j j j j j j j j j j j j u = o Q ' ' { { { { ' ' ' ' ' ' { ",
"S { { { { ' ' ' ' ' ' ' ' n =   t j j j j j j j j j j j j j j j j j j j j j j j j j j j j j j u = @ Q { { { { { { { { { { { { { ",
"S ' { ' ' ' ' ' ' ' ' ' ' v = @ r j j j j j j j j j j j j j j j j j j j j j j j j j j j j j j u = O ( { { ' ' ' ' ' ' ' ' ' { { ",
"S ' ' ' { { { { { { { { { v =   u j j j j j j j j j j j j j j j j j j j j j j j j j j j j j j u = o Q ' ' ' { { { { ' ' ' ' ' ' ",
"S S S S S S S S S S S S S 1 = o r j j j j j j j j j j j j j j j j j j j j j j j j j j j j j j u = . C S S S S S S S S S S S S S ",
"' ' ' ' ' ' { { { ' ' { { n =   u j j j j j j j j j j j j j j j j j j j j j j j j j j j j j j u = # Q ' ' ' { { S { { { { ' ' ' ",
"{ { { { ' ' ' ' { { { ' ' v = @ r j j j j j j j j j j j j j j j j j j j j j j j j j j j j j j u = . Q ' ' ' ' ' S ' ' ' ' ' ' ' ",
"' ' ' { { { { { { { ' ' ' n =   u j j j j j j j j j j j j j j j j j j j j j j j j j j j j j j u ; . ( ' ' ' ' ' S { { { { { { { ",
"{ ' { { { { ' ' ' ' ' { { n = o t j j g j j j j j j j j j j j j j j j j j j j j j j j j j j j u =   / { { { ' { S ' ' ' { { { { ",
"' ' ' ' ' ' ' ' ' { { { { c =   , w r w w w w w w w w w w w w w w w w w w w w w w w w w w w r u =   Q ' ' ' { { S { { ' ' ' { { ",
"' ' ' ' { { { { { { { ' ' / ! Q ! ! ! ! ! ! ! ! Z ! ) ) ) ! ! ! ! ! ! ! ) ) ) ) ) ) ) ! Q ! ! ^ ! Q _ ' ' ' ' ' S ' { { { ' ' ' ",
"{ { { { { ' ' ' ' ' ' ' ' ' ' ' ' ' ' { { { { { S ' ' ' { { { { { { { { { ' ' ' ' ' ' ' ' ' ' ' ' ' ' { { { { { S ' ' ' { { { { "
};
