/* XPM */
static char *orb[] = {
/* columns rows colors chars-per-pixel */
"64 64 77 1 ",
"  c #1D1622",
". c #1F1824",
"X c #201824",
"o c #211925",
"O c #231A28",
"+ c #241B28",
"@ c #241B29",
"# c #281E2C",
"$ c #281E2D",
"% c #272437",
"& c #2B2131",
"* c #2C2131",
"= c #2F2330",
"- c #2D2132",
"; c #2C2232",
": c #2D2233",
"> c #2E2334",
", c #2A2437",
"< c #2B2537",
"1 c #302435",
"2 c #302537",
"3 c #312537",
"4 c #332639",
"5 c #34273A",
"6 c #34283B",
"7 c #35283C",
"8 c #372A3D",
"9 c #3B293A",
"0 c #382A3B",
"q c #382B3F",
"w c #48343A",
"e c #49373C",
"r c #382B40",
"t c #392C40",
"y c #3B2E43",
"u c #3C2F44",
"i c #3E3146",
"p c #3F3147",
"a c #4C3A42",
"s c #403248",
"d c #413349",
"f c #43344B",
"g c #45364B",
"h c #44364D",
"j c #45364E",
"k c #47384F",
"l c #5E3341",
"z c #533F4B",
"x c #473850",
"c c #483951",
"v c #713A46",
"b c #884D56",
"n c #AD535A",
"m c #B5575D",
"M c #BE5A60",
"N c #BF5B60",
"B c #A26571",
"V c #A87B77",
"C c #AD7C79",
"Z c #B5717F",
"A c #C05C61",
"S c #C65E63",
"D c #C75E63",
"F c #AA827E",
"G c #AA827F",
"H c #C08E88",
"J c #C39691",
"K c #E1A6A0",
"L c #E6AAA4",
"P c #E8ACA5",
"I c #E3AFAA",
"U c #E8B3AE",
"Y c #F0B2AB",
"T c #EBB5B0",
"R c #F3BCB6",
"E c #FBBAB3",
"W c #FEC4BE",
/* pixels */
"ZZZZZZZZZZZZZZZZZZZZZZZZZZZZZZZZZZZZZZZZZZZZZZZZZZZZZZZZZZZZZZZZ",
"EEEEEEEEEWWWWEEEZWEEEEEEEEWWWEEEEEEEEEEEEWWWWEEEZWEEEEEEEEWWWEEE",
"WWWWWWWEEEEEEWWWZWWWWWWWEEEEEWWWWWWWWWWEEEEEEWWWZWWWWWWWEEEEEWWW",
"EEEEEEEEEEWWEEWWZEEWWWWWWWWEEEEEEEEEEEEEEEWWEEWWZEEWWWWWWWWEEEEE",
"EEEEEEEEEEEEEWEWZWEEEEWWEEEWWWEEEEEEEEEEEEEEEWEWZWEEEEWWEEEWWWEE",
"WWWWWEEEEWWWWWWWZWWWEEEEWWWWWWWWWWWWWEEEEWWWWWWWZWWWEEEEWWWWWWWW",
"WWEEEEEEEEEEEEEWZEEWWWEEEEEWWWWWWWEEEEEEEEEEEEEWZEEWWWEEEEEWWWWW",
"EEEEWWWWEEEEEEEEZEEEEEEEEEEEEEEEEEEEWWWWEEEEEEEEZEEEEEEEEEEEEEEE",
"ZZZZZZZZZZZZZZZZZZZZZZZZZZZZZZZZZZZZZZZZZZZZZZZZZZZZZZZZZZZZZZZZ",
"EEEWWWWWZEEEEEEEWWWWWWWWWWWWWEEEEEEWWWWWZEEEEEEEWWWWWWWWWWWWWEEE",
"WWEEEEEWZWWWWEEEEEEEEEEEEEEEEEEEWWEEEEEWZWWWWEEEEEEEEEEEEEEEEEEE",
"WWWWEEEEZEWWWWWWWEEEEEEWWEEWWWWWWWWWEEEEZEWWWWWWWEEEEEEWWEEWWWWW",
"EEEEWWEEZEEEEEEEEWWWWWEWWWEWWWEEEEEEWWEEZEEEEEEEEWWWWWEWWWEWWWEE",
"EEWWWEEEZWWEEEEEEEWWWWEEEEEWWWWWEEWWWEEEZWWEEEEEEEWWWWEEEEEWWWWW",
"WWWEEEEWZWWWWWEEEEEEWWWWWWEEEEWWWWWEEEEWZWWWWWEEEEEEWWWWWWEEEEWW",
"EEEEWWWWZEEEWWWWEEEEEEEEEWWWWEEEEEEEWWWWZEEEWWWWEEEEEEEEEWWWWEEE",
"ZZZZZZZZZZZZZZZZZZZZZZZZZZZZZZZZZZZZZZZZZZZZZZZZZZZZZZZZZZZZZZZZ",
"ZEWWEEEWWWWWWWWEEEEWWWWWWEEYCw@@@@wFUEEWWWWWWWWEEEEWWWWWWEEEEEEE",
"ZEEWWWWWEEEEEEEEEWEEEEWWWJoo*&&***#3OoJWEEEEEEEEEWEEEEWWWWWWWWWW",
"ZWEEEEEEEEEEWWWWWWWWWEEK ****&*#**3#**4OKEEEWWWWWWWWWEEEEEWWEEEE",
"ZWEWWWWWWWWWWEEEEEEEEWU#************&&885UWWWEEEEEEEEWWWWEEEEEEW",
"ZWWWWEEEEEEEEWWEEEEWWT**************&&8t88LEEWWEEEEWWWWWWWWWWWWW",
"ZEWEEEEEEEEEEEWWWWWWU***************&48rt89LEEWWWWWWWEEEEEEEEEWW",
"ZEEEWWWWWWWWWEEEEEEK#***************&7888884IEEEEEEEEEWWWWEEEEEE",
"ZZZZZZZZZZZZZZZZZZZ ********&<&&*****88870t7XZZZZZZZZZZZZZZZZZZZ",
"EEEEEEWWWEEWWWEEEEH*********&:%%%<3**88877*>4JEEEEEEEEWWZWWWWEEE",
"WWWWEEEEWWWEEEEEEEo**$*&***3<vmDDmv47885*373*oEEEEEEEEEEZEEEEEEE",
"EEEWWWWWWWEEEWWEER+*******>9NDDmmDDm98*>8*$**oREEWWEEEEEZWWWWWWW",
"WEWWWWEEEEEWWWWWWF::;#*&**<NDNlNmlADM,8>$*****GWWWWWWWEWZEEEWWWW",
"EEEEEEEEEWWWWWEEEw***&&:*>vDNnDDDDnMSv>&*&****wEEEEEEEWWZWWEEEWW",
"EEEEWWWWWWWEEEEEE*t8877:*<mDlDDDDDDlSm,&&**&*4*EEEEEEEEEZEWWWEEE",
"WWWWWEEEEEEEEEEEE*q888888%DmNDDCCDDAmS%&:*4488*EEEEWWWWWZEEEWWWW",
"ZZZZZZZZZZZZZZZZZ*8rr8888%DmASDbbDDNmD%388r8r8>ZZZZZZZZZZZZZZZZZ",
"EEEEEEEEEWWWWEEEZ%8788rr8%mDlDDDDDDlDm%tr8uuit>EZWEEEEEEEEWWWEEE",
"WWWWWWWEEEEEEWWWZa7r888rdpvDMnSDDDnMSvtjjxxxxxzWZWWWWWWWEEEEEWWW",
"EEEEEEEEEEWWEEWWZVrrrhxxxx<MDMlAAlADN,88rrrtxxGWZEEWWWWWWWWEEEEE",
"EEEEEEEEEEEEEWEWZR6jxxxxxxp9ASSmmDSM98>488888*YWZWEEEEWWEEEWWWEE",
"WWWWWEEEEWWWWWWWZW4jxxxxxxxp>vmDDmv,>&>4&3888#WWZWWWEEEEWWWWWWWW",
"WWEEEEEEEEEEEEEWZEHcxxxxxxxxq3,,,,>***&*44&40HEWZEEWWWEEEEEWWWWW",
"EEEEWWWWEEEEEEEEZEE>xxxxxxkpd<***&******&&45oEEEZEEEEEEEEEEEEEEE",
"ZZZZZZZZZZZZZZZZZZZBpkxxxxxrj&**>&*#*******#BZZZZZZZZZZZZZZZZZZZ",
"EEEWWWWWZEEEEEEEWWWWUfxxxxdt>&*#&*********3LEEEEWWWWWWWWWWWWWEEE",
"WWEEEEEWZWWWWEEEEEEEEPgxxxt03*&**********:UWWEEEEEEEEEEEEEEEEEEE",
"WWWWEEEEZEWWWWWWWEEEEELpxdqf*&**********#LWWWWWWWEEEEEEWWEEWWWWW",
"EEEEWWEEZEEEEEEEEWWWWWEI*qq8***&**&&*#* BEEEEEEEEWWWWWEWWWEWWWEE",
"EEWWWEEEZWWEEEEEEEWWWWEEEH*@***&**&>@oHEZWWEEEEEEEWWWWEEEEEWWWWW",
"WWWEEEEWZWWWWWEEEEEEWWWWWWEUCwOO@@eCYEEWZWWWWWEEEEEEWWWWWWEEEEWW",
"EEEEWWWWZEEEWWWWEEEEEEEEEWWWWEEEEEEEWWWWZEEEWWWWEEEEEEEEEWWWWEEE",
"ZZZZZZZZZZZZZZZZZZZZZZZZZZZZZZZZZZZZZZZZZZZZZZZZZZZZZZZZZZZZZZZZ",
"ZEWWEEEWWWWWWWWEEEEWWWWWWEEEEEEEZEWWEEEWWWWWWWWEEEEWWWWWWEEEEEEE",
"ZEEWWWWWEEEEEEEEEWEEEEWWWWWWWWWWZEEWWWWWEEEEEEEEEWEEEEWWWWWWWWWW",
"ZWEEEEEEEEEEWWWWWWWWWEEEEEWWEEEEZWEEEEEEEEEEWWWWWWWWWEEEEEWWEEEE",
"ZWEWWWWWWWWWWEEEEEEEEWWWWEEEEEEWZWEWWWWWWWWWWEEEEEEEEWWWWEEEEEEW",
"ZWWWWEEEEEEEEWWEEEEWWWWWWWWWWWWWZWWWWEEEEEEEEWWEEEEWWWWWWWWWWWWW",
"ZEWEEEEEEEEEEEWWWWWWWEEEEEEEEEWWZEWEEEEEEEEEEEWWWWWWWEEEEEEEEEWW",
"ZEEEWWWWWWWWWEEEEEEEEEWWWWEEEEEEZEEEWWWWWWWWWEEEEEEEEEWWWWEEEEEE",
"ZZZZZZZZZZZZZZZZZZZZZZZZZZZZZZZZZZZZZZZZZZZZZZZZZZZZZZZZZZZZZZZZ",
"EEEEEEWWWEEWWWEEEEEEEEWWZWWWWEEEEEEEEEWWWEEWWWEEEEEEEEWWZWWWWEEE",
"WWWWEEEEWWWEEEEEEEEEEEEEZEEEEEEEWWWWEEEEWWWEEEEEEEEEEEEEZEEEEEEE",
"EEEWWWWWWWEEEWWEEWWEEEEEZWWWWWWWEEEWWWWWWWEEEWWEEWWEEEEEZWWWWWWW",
"WEWWWWEEEEEWWWWWWWWWWWEWZEEEWWWWWEWWWWEEEEEWWWWWWWWWWWEWZEEEWWWW",
"EEEEEEEEEWWWWWEEEEEEEEWWZWWEEEWWEEEEEEEEEWWWWWEEEEEEEEWWZWWEEEWW",
"EEEEWWWWWWWEEEEEEEEEEEEEZEWWWEEEEEEEWWWWWWWEEEEEEEEEEEEEZEWWWEEE",
"WWWWWEEEEEEEEEEEEEEWWWWWZEEEWWWWWWWWWEEEEEEEEEEEEEEWWWWWZEEEWWWW"
};
