/* XPM */
static char *player[] = {
/* columns rows colors chars-per-pixel */
"64 64 37 1 ",
"  c #101010",
". c #3B1C1C",
"X c #352315",
"o c #1E1E20",
"O c gray16",
"+ c #2A2A2C",
"@ c #303032",
"# c #39393B",
"$ c #462727",
"% c #472B2B",
"& c #492C2C",
"* c #463121",
"= c #4D3420",
"- c #5B3F29",
"; c #543838",
": c #663931",
"> c #5A4331",
", c #1D2F4D",
"< c #273D5F",
"1 c #354A6A",
"2 c #495B77",
"3 c #B5717F",
"4 c #C28975",
"5 c #CC927E",
"6 c #556681",
"7 c gray70",
"8 c #D99D88",
"9 c #EABDAF",
"0 c #FBBAB3",
"q c #E4C0B4",
"w c #EECBBF",
"e c #FEC4BE",
"r c #DFD9D5",
"t c gray87",
"y c #F5D6CC",
"u c #FADDD3",
"i c white",
/* pixels */
"3333333333333333333333333333333333333333333333333333333333333333",
"000000000eeee0003e00000000eee000000000000eeee0003e00000000eee000",
"eeeeeee000000eee3eeeeeee00000eeeeeeeeee000000eee3eeeeeee00000eee",
"0000000000ee00ee300eeeeeeee000000000000000ee00ee300eeeeeeee00000",
"0000000000000e0e3e0000ee000eee000000000000000e0e3e0000ee000eee00",
"eeeee0000eeeeeee3eee0000eeeeeeeeeeeee0000eeeeeee3eee0000eeeeeeee",
"ee0000000000000e300eee00000eeeeeee0000000000000e300eee00000eeeee",
"0000eeee0000000030000000000000000000eeee000000003000000000000000",
"3333333333333333333333333333........3333333333333333333333333333",
"000eeeee30000000eeeeeeeeee..;;$$$;;;..ee30000000eeeeeeeeeeeee000",
"ee00000e3eeee00000000000..%;;%%;;$$;;.0e3eeee0000000000000000000",
"eeee000030eeeeeee000000e.$%;%$$%;$%$;;.030eeeeeee000000ee00eeeee",
"0000ee00300000000eeeee0.;$$%$;;$%;$%$;;.300000000eeeee0eee0eee00",
"00eee0003ee0000000eeee0.%;$$%..;$%%$%$%;.ee0000000eeee00000eeeee",
"eee0000e3eeeee000000ee.;$%;;..4.;$$%;%$$.eeeee000000eeeeee0000ee",
"0000eeee3000eeee000000.%$%;.;.45.;;$;;$%;.00eeee000000000eeee000",
"3333333333333333333333.$%;.;..585...$$%$$.3333333333333333333333",
"30ee000eeeeeeee0000eee.$%;..55899855...%$;.eeee0000eeeeee0000000",
"300eeeee000000000e0000.%;.8.89yyyy988.8.;$;.00000e0000eeeeeeeeee",
"3e0000000000eeeeeeeee0.%...&&yyyyyy&&.88.;$.eeeeeeeee00000ee0000",
"3e0eeeeeeeeee00000000.$%.**XX&yuuy&XX*.8.;$.e00000000eeee000000e",
"3eeee00000000ee0000ee.%.8r-=i9uyuu9=i-r8.$.00ee0000eeeeeeeeeeeee",
"30e00000000000eeeeeee...:8r>>uuuyuu>>r8:$.0000eeeeeee000000000ee",
"3000eeeeeeeee0000000.0e.:8yu9uuwyuu9uy8:.eeee000000000eeee000000",
"333333333333333333333333.:8yuuuuuuuuy8:.333333333333333333333333",
"000000eee00eee00000000ee3e:8yuqqquuy8:.ee00eee00000000ee3eeee000",
"eeee0000eee0000000000000300:88yuuy88:.;.eee000000000000030000000",
"000eeeeeee000ee00ee000003eoo::8yy8::.;$.ee000ee00ee000003eeeeeee",
"e0eeee00000eeeeeeeeeee0e3o##++:88:++.$;;.00eeeeeeeeeee0e3000eeee",
"000000000eeeee00000000eeo####+u::u+.$;$.0eeeee00000000ee3ee000ee",
"0000eeeeeee0000000000000o####oouuoo.;$.oeee000000000000030eee000",
"eeeee00000000000000eeeeeo#####oooo#.;.#o00000000000eeeee3000eeee",
"33333333333333333333333o###o##7##7.$.###o33333333333333333333333",
"000000000eeee0003e00000o##o###7##7..#o##oeeee0003e00000000eee000",
"eeeeeee000000eee3eeeeeeo##o##t####.##o##o0000eee3eeeeeee00000eee",
"0000000000ee00ee300eeeeo#@o####@@####o@#o0ee00ee300eeeeeeee00000",
"0000000000000e0e3e0000eo##oo+@@##@@+oo##o0000e0e3e0000ee000eee00",
"eeeee0000eeeeeee3eee00o###oo########oo###oeeeeee3eee0000eeeeeeee",
"ee0000000000000e300eeeo@##oo########oo###o00000e300eee00000eeeee",
"0000eeee00000000300000o+##ooo######ooo@#+o0000003000000000000000",
"3333333333333333333333:8+#3,,oooooo,,3o+8:3333333333333333333333",
"000eeeee30000000eeeee:8uuoe,<111111<,eouu8:00000eeeeeeeeeeeee000",
"ee00000e3eeee00000000:88880,22212222,08888:ee0000000000000000000",
"eeee000030eeeeeee00000:::00,16616661,00:::eeeeeee000000ee00eeeee",
"0000ee00300000000eeeee0eee0,26621662,e00300000000eeeee0eee0eee00",
"00eee0003ee0000000eeee00000,622,,226,0003ee0000000eeee00000eeeee",
"eee0000e3eeeee000000eeeeee0,66,ee,66,00e3eeeee000000eeeeee0000ee",
"0000eeee3000eeee000000000ee,66,00,66,eee3000eeee000000000eeee000",
"333333333333333333333333333,26,33,62,333333333333333333333333333",
"30ee000eeeeeeee0000eeeeee00,62,03,26,00eeeeeeee0000eeeeee0000000",
"300eeeee000000000e0000eeeee,66,e3,66,eee000000000e0000eeeeeeeeee",
"3e0000000000eeeeeeeee00000e,26,03,62,0000000eeeeeeeee00000ee0000",
"3e0eeeeeeeeee00000000eeee00,22,e3,22,eeeeeeee00000000eeee000000e",
"3eeee00000000ee0000eeeeeee O,,,e3,,,O 0000000ee0000eeeeeeeeeeeee",
"30e00000000000eeeeeee0000 OOOO e3 OOOO 0000000eeeeeee000000000ee",
"3000eeeeeeeee000000000eeee    0030    eeeeeee000000000eeee000000",
"3333333333333333333333333333333333333333333333333333333333333333",
"000000eee00eee00000000ee3eeee000000000eee00eee00000000ee3eeee000",
"eeee0000eee000000000000030000000eeee0000eee000000000000030000000",
"000eeeeeee000ee00ee000003eeeeeee000eeeeeee000ee00ee000003eeeeeee",
"e0eeee00000eeeeeeeeeee0e3000eeeee0eeee00000eeeeeeeeeee0e3000eeee",
"000000000eeeee00000000ee3ee000ee000000000eeeee00000000ee3ee000ee",
"0000eeeeeee000000000000030eee0000000eeeeeee000000000000030eee000",
"eeeee00000000000000eeeee3000eeeeeeeee00000000000000eeeee3000eeee"
};
