/* XPM */
static char *wall7[] = {
/* columns rows colors chars-per-pixel */
"64 64 189 2 ",
"   c #110605",
".  c #140905",
"X  c #160D0D",
"o  c #180F0F",
"O  c #18100F",
"+  c #181010",
"@  c #1A151D",
"#  c #1C1A25",
"$  c #1E1E2C",
"%  c #31242C",
"&  c #252433",
"*  c #22263B",
"=  c #26293C",
"-  c #4D3835",
";  c #5A413E",
":  c #252C44",
">  c #252E49",
",  c #27304B",
"<  c #33364A",
"1  c #2B3552",
"2  c #2C3857",
"3  c #2E3B5B",
"4  c #353B55",
"5  c #393C53",
"6  c #303E61",
"7  c #324266",
"8  c #35466C",
"9  c #3C486A",
"0  c #384B75",
"q  c #394B75",
"w  c #3D527F",
"e  c #454642",
"r  c #4F504B",
"t  c #554951",
"y  c #6C494D",
"u  c #7A5956",
"i  c #69645E",
"p  c #4C5372",
"a  c #51597A",
"s  c #745870",
"d  c #6F726B",
"f  c #72756D",
"g  c #767971",
"h  c #7C7F77",
"j  c #805D5A",
"k  c #83615E",
"l  c #8E5863",
"z  c #915A65",
"x  c #8A6965",
"c  c #99636B",
"v  c #81716E",
"b  c #896A79",
"n  c #957271",
"m  c #A76775",
"M  c #A57A75",
"N  c #AC7E79",
"B  c #B5717F",
"V  c #7F837A",
"C  c #80837A",
"Z  c #3F5481",
"A  c #415785",
"S  c #4C5C87",
"D  c #435A8B",
"F  c #5A6488",
"G  c #5F698F",
"H  c #476195",
"J  c #486196",
"K  c #496399",
"L  c #646E95",
"P  c #667199",
"I  c #4E6AA4",
"U  c #516CA5",
"Y  c #516FAA",
"T  c #5871A8",
"R  c #5575B4",
"E  c #5877B7",
"W  c #5677B8",
"Q  c #5878B8",
"!  c #6D79A4",
"~  c #6C7BA9",
"^  c #717EAC",
"/  c #607DBC",
"(  c #926D8B",
")  c #A06C84",
"_  c #AA728A",
"`  c #A27392",
"'  c #798495",
"]  c #7987A0",
"[  c #7481AF",
"{  c #6C84BC",
"}  c #7885B4",
"|  c #758DBE",
" . c #7E8CBE",
".. c #6983C0",
"X. c #748AC6",
"o. c #778CC7",
"O. c #7E92CC",
"+. c #8C9087",
"@. c #8E9288",
"#. c #8A908C",
"$. c #999E96",
"%. c #AE8585",
"&. c #AF9092",
"*. c #9EA39B",
"=. c #A1A59A",
"-. c #A5A69C",
";. c #BFA099",
":. c #978CB3",
">. c #8798B9",
",. c #9890B8",
"<. c #AE91A7",
"1. c #B394AB",
"2. c #99A3AD",
"3. c #B2B8AC",
"4. c #A8B1B1",
"5. c #B8BEB1",
"6. c #B4BCB8",
"7. c #C5918C",
"8. c #C9958F",
"9. c #C79994",
"0. c #CC9D98",
"q. c #D79F99",
"w. c #DCA39D",
"e. c #E0A59F",
"r. c #CA9FB0",
"t. c #D7A7A3",
"y. c #DCAAA5",
"u. c #CEA5B5",
"i. c #CFA8B3",
"p. c #E1A6A0",
"a. c #E5ACA6",
"s. c #E6B1AC",
"d. c #E8B3AE",
"f. c #F2B3AC",
"g. c #E3AEB4",
"h. c #ECB6B0",
"j. c #F5B7B4",
"k. c #F5BDB7",
"l. c #FBBAB3",
"z. c #BEC3B7",
"x. c #C2C8BB",
"c. c #FEC4BE",
"v. c #808EC1",
"b. c #8494C6",
"n. c #8595CD",
"m. c #889BC8",
"M. c #8597D1",
"N. c #8C9DD5",
"B. c #8F9FD8",
"V. c #8FA0CF",
"C. c #91A3C5",
"Z. c #95A6CB",
"A. c #9EAECA",
"S. c #99A8D6",
"D. c #90A0D8",
"F. c #A8B7CC",
"G. c #ABB9CB",
"H. c #B0BECF",
"J. c #A1AFDA",
"K. c #A7B4DB",
"L. c #B1BDDB",
"P. c #D9B0C2",
"I. c #BBC4C8",
"U. c #BAC6CD",
"Y. c #B4C2D0",
"T. c #BBC7D2",
"R. c #BDC9D5",
"E. c #B9C5DD",
"W. c #C0CACE",
"Q. c #CBD2C5",
"!. c #D3DBCC",
"~. c #C1CDD8",
"^. c #C9D4D5",
"/. c #CAD5D8",
"(. c #D1DBD8",
"). c #DAE2D5",
"_. c #D9E3DE",
"`. c #E5ECDD",
"'. c #C4CFE0",
"]. c #C6D1E0",
"[. c #CAD4E0",
"{. c #CED8E1",
"}. c #D3DDE2",
"|. c #DCE5E1",
" X c #DFE8E1",
".X c #E1EAE5",
"XX c #EBF3E5",
"oX c #EFF7E8",
"OX c #F0F8E8",
/* pixels */
"B B B B B B B B B B B B B B B B B B B B B B B B B B B B B B B B B B B B B B B B B B B B B B B B B B B B B B B B B B B B B B B B ",
"l.l.l.l.l.l.l.l.l.c.c.c.c.l.l.l.B c.l.l.l.l.l.l.l.l.c.c.c.l.l.l.l.l.l.l.l.l.l.l.l.c.c.c.c.l.l.l.B c.l.l.l.l.l.l.l.l.c.c.c.l.l.l.",
"c.c.c.c.c.c.c.l.l.l.l.l.l.c.c.c.B c.c.c.c.c.c.c.l.l.l.l.l.c.c.c.c.c.c.c.c.c.c.l.l.l.l.l.l.c.c.c.B c.c.c.c.c.c.c.l.l.l.l.l.c.c.c.",
"l.l.l.l.l.l.l.l.l.l.c.c.l.l.c.c.B l.l.c.c.c.c.c.c.c.c.l.l.l.l.l.l.l.l.l.l.l.l.l.l.l.c.c.l.l.c.c.B l.l.c.c.c.c.c.c.c.c.l.l.l.l.l.",
"l.l.l.l.l.l.l.l.l.l.l.l.l.c.l.c.B c.l.l.l.l.c.c.l.l.l.c.c.c.l.l.l.l.l.l.l.l.l.l.l.l.l.l.l.c.l.c.B c.l.l.l.l.c.c.l.l.l.c.c.c.l.l.",
"c.c.c.c.c.l.l.l.l.c.c.c.c.c.c.c._ c.c.c.l.l.l.l.c.c.c.c.c.c.c.c.c.c.c.c.c.l.l.l.l.c.c.c.c.c.c.c.B c.c.c.l.l.l.l.c.c.c.c.c.c.c.c.",
"c.c.l.l.l.l.l.l.l.l.l.l.l.l.l.s.- k l.c.c.c.l.l.l.l.l.c.c.c.c.c.c.c.l.l.l.l.l.l.l.l.l.l.l.f.k x m l.l.c.c.c.l.l.l.l.l.c.c.c.c.c.",
"l.l.l.l.c.c.c.c.l.l.l.l.l.l.l.y.H H M M w.l.l.c.l.l.l.l.l.l.l.l.l.l.l.l.c.c.c.c.l.l.l.e.M M H H ) l.l.l.l.l.l.l.l.l.l.l.l.l.l.l.",
"B B B B B B B B _ B B B B B B ) K W Z w s l c B B B _ ` ( l l l l l l ( ` _ B B B c l s A w R H ) B B B B B B B B B B B B B B B ",
"l.l.l.c.c.c.c.c.B l.l.l.l.l.l.w.: K Q Q D 7 b y.y.p.e.:.H 7 7 8 7 7 7 H :.y.y.a.c b 7 D Q W U : y.c.c.c.c.c.c.c.c.c.c.c.c.l.l.l.",
"c.c.l.l.l.l.l.c.B c.c.c.c.l.l.w.O O Y W Q R H O O , , H Y R W Y Y Q T Y H , , O O H R E W Y o + w.l.l.l.l.l.l.l.l.l.l.l.l.l.l.l.",
"c.c.c.c.l.l.l.l.B l.c.c.c.c.c.y.O O O I Q D O X . R R q . 8 Y O O Y 8 X 8 W W . X o D E I + + + y.l.l.l.l.l.l.c.c.l.l.c.c.c.c.c.",
"l.l.l.l.c.c.l.l.B l.l.l.l.l.l.w.+ + + $ $ # 9  .oXoXXXXXY.K # O O # K U.XXXXXXXX>.7 # $ # o + + w.c.c.c.c.c.l.c.c.c.l.c.c.c.l.l.",
"l.l.c.c.c.l.l.l.B c.c.l.l.l.l.q.+ + + + Z 4.)._.oXOXOXOXXXU.K O + K U.XXOXOXOXOX.X(.4.A o o + + w.l.c.c.c.c.l.l.l.l.l.c.c.c.c.c.",
"c.c.c.l.l.l.l.c.B c.c.c.c.c.l.w.+ + O 3.^._.XXOXXXXXOXOXOX.XU.H K U..XOXOXXXOXOXOXOX_.^.3.O O + w.l.l.l.c.c.c.c.c.c.l.l.l.l.c.c.",
"l.l.l.l.c.c.c.c.B l.l.l.c.c.c.y.+ O -.`.OXOX).z.z.z.z.I._.OXXXY.Y.XXOX_.I.z.z.3.5.`.OXOX`.-.o + w.l.l.l.l.l.l.l.l.c.c.c.c.l.l.l.",
"B B B B B B B B B B B B B B _ b & a oXOX|.(.z.#.+.+.+.2./.OXOXOXOXOXOX/.2.+.+.+.@.z.(.|.oXXXa * b _ B B _ B B B B B B B B B B B ",
"B l.c.c.l.l.l.c.c.c.c.c.c.c.u.H t K.OXOXY.] -.OXOXOXOXOXOXOXOXOXOXOXOXOXoXOXOXOXOX*.] Y.OXoXJ.t H r.l.k.c.c.c.c.c.l.l.l.l.l.l.l.",
"B l.l.c.c.c.c.c.l.l.l.l.l.l.7.o i oXoXoXOXOXOXOXOXOXOXOXOXOXOXOXOXOXoXOXOXOXOXOXOXOXOXOXOXOXOXi + 9.l.l.l.l.c.c.c.c.c.c.c.c.c.c.",
"B c.l.l.l.l.l.l.l.l.l.l.c.c.9.a S.oXoXoXOXOXOXOXOXOXOX$.3.OXOXOXOXOXoX3.*.OXOXOXOXOXOXOXOXOXOXJ.a 9.c.c.c.l.l.l.l.l.c.c.l.l.l.l.",
"B c.l.c.c.c.c.c.c.c.c.c.c.l.7.a J.OXOXOXOXOXOXOXoXOX*.z.3.g g g g g g 3.z.*.OXOXOXOXOXOXoXoXOXJ.a 7.l.l.l.c.c.c.c.l.l.l.l.l.l.c.",
"B c.c.c.c.l.l.l.l.l.l.l.l.i.,.o.J.OXOXOXOXOXOXOXoXE.[ ' ' T } } } } T ' ' [ E.OXOXOXOXOXoXOXOXJ.v.:.u.c.c.c.c.c.c.c.c.c.c.c.c.c.",
"B l.c.l.l.l.l.l.l.l.l.l.l.<.^ B.S.].OX}.R.T.T.T.T.].T.6.z.E./.'.].'.T.z.6.T./.T.T.R.T.R.[.[.[.S.B.^ <.c.c.l.l.l.l.l.l.l.l.l.c.c.",
"B l.l.l.c.s.w.d.c.c.c.c.c.M L B.D.D.(.S.Z.A.A.A.A.oXoXoXoXoXOXOXoXoXoXoXOXOXOXA.A.A.A.Z.M.n.D.D.B.L M l.l.l.c.c.s.w.e.l.l.l.l.l.",
"B B B B m v d x m _ B m m y F b.n.M.m.O.).oXOXOXOXOXOXOXOXOXOXOXoXOXOXOXOXOXOXOXOXOXOX(.b.m.M.b.b.F y m m _ _ m v f v m B B B B ",
"l.l.l.l.t !.OXx.x l.l.- X + + + , R XXOXOXOXOXOXOXOXOXOXOXOXoXOXOXOXoXOXOXOXOXOXOXOXOXOXOXXXR : O o o o - l.c.x x.OXQ.y c.l.l.l.",
"0.+ o + o . ^ ~ O : / Q W q X +.OXOXOXOXOXOXOXOXOXOXOXOXOXOXOXOXOXOXOXOXOXOXOXOXOXOXOXOXOXOXOXOX+.o q E E E > + ^ ^ X o o o O 8.",
"-.).(.b.< + 5 S Y T E Q q 5.).`.OXOXOXOXOXOXOXOXOXOXOXOXOXOXOXOXOXOXOXOXOXOXOXOXOXOXOXOXOXOXOXOX`.`.5.q / E Y U S < + < b.).).-.",
"9.2.Y.F $ + + , A E E q 6.`.OXOXOXOXOXOXOXOXOXOXOXOXOXOXOXOXOXOXOXOXOXOXOXOXOXOXOXOXOXOXOXOXOXOXXXOX`.5.q R R A , + + $ F L.*.;.",
"a.%.L O + + + + > A Z 3.`.OXOXOXOXOXOXOXOXOXOXOXOXOXOXOXOXOXOXOXOXOXOXOXOXOXOXOXOXOXOXOXOXOXOXOXOXOXoX`.3.A A > + + + + X L &.d.",
"l.w.O O + + + + O & F XXOXOXOXOXOXOXOXOXOXOXOXOXOXOXOXOXOXOXOXOXOXOXOXOXOXOXOXOXOXOXOXOXOXOXOXOXOXOXoXoXXXF & + + + + + + + y.l.",
"c.0.g O + + + + O 5 N.XXOXOXOXOXOXOXOXOXOXOXOXOXOXOXOXOXOXOXOXOXOXOXOXOXOXOXOXOXOXOXOXOXOXOXOXOXOXOXOXOXXXB.5 + + + + + + d t.j.",
"z V `.X O O O O + 4 B.XXOXOXOXOXOXoXOXOXOXOXOXOXOXOXOXOXOXOXOXOXOXOXOXOXOXOXOXOXOXOXOXOXOXOXOXOXOXOXOXOXXXB.4 + + + + + + .XC z ",
"l.w.X O + O O O 7 / B.XXOXOXOXOXOXOXOXOXOXOXOXOXOXOXOXOXOXOXOXOXOXOXOXOXOXOXOXOXOXOXOXOXOXOXOXOXOXOXOXOXXXB./ 7 + + + + + . p.l.",
"c.c.h.h.h.k O O p N.D.oXOXOXOXOXOXOXOXOXOXOXOXOXOXOXOXOXOXoXOXOXOXOXOXOXOXOXOXOXOXOXOXOXOXOXOXOXOXOXOXOXOXB./ 6 + + j a.a.h.c.c.",
"l.l.l.l.l.a.c o 9 X.D.L..XOXoXoXOXOXOXOXOXOXOXOXOXOXOXOXOXOXOXOXOXOXOXoXOXOXOXOXOXOXOXOXOXOXOXOXOXOXOX.XL.D./ 6 + n s.l.l.l.l.l.",
"l.l.l.l.l.7.u o > H B.B.E.].|.oXOXOXOXOXoXOXOXOXOXOXOXOXOXOXOXOXOXOXOXOXOXOXOXOXOXOXOXOXOXOXOXOXOX_.~.E.D.o.D , + u 7.c.c.c.l.l.",
"c.c.c.c.c.k o o + < n.B.D.B.L.}.}.}.OXOXoXoXOXOXOXOXOXOXoXoXOXOXOXOXOXOXOXOXOXOXOXOXOXOXXX}.}.}.}.L.D.D.D.Q : + + + x c.c.c.c.c.",
"c.c.l.l.e.j + + o * U n.B.B.D.D.B.B..X.X.X.X.X.X.X.X.X.X.X.X.X.X.X.X.X X X X X.X.X.X|..X}.B.D.D.D.D.D.D.M.Y * + + + j h.c.c.c.c.",
"l.l.l.l.t + + + + o X / M.B.D.B.D.B.B.B.B.B.B.B.B.D.B.B.D.B.B.D.D.D.D.D.D.D.D.D.D.D.D.D.B.B.D.D.D.D.D.M.Q + + + + + + - l.l.l.l.",
"B B B B % X o o + +   XXh ^ B.B.D.D.D.D.D.D.D.D.D.D.D.D.D.D.D.D.D.D.D.D.D.D.D.D.D.D.D.D.D.D.D.D.B.B.} V `.X o o + + + % _ B B B ",
"l.l.h.y ).C o o + o X XXXX$.! B.D.D.D.D.D.D.D.D.D.D.D.D.D.D.D.D.D.D.D.D.D.D.D.D.D.D.D.D.D.D.D.D.D.! *._.XXX + o + + h ).y f.l.l.",
"c.c.f.X `.).@.9 I J   XXoX=.4 G X.D.D.B.D.D.D.D.D.D.D.o.T a a a a a S T O.D.D.D.D.D.D.D.D.D.B.B.P 5 *.XX`.  K I 8 @.).XX  f.l.l.",
"c.c.k.. XXOX4.>.~.T.D G.H.6.@., A L X.N.D.D.M.X.L L P S 4 + + + + O O 7 S L L L | M.D.D.N.X.L L 5 @.z.Y.G.J T.R.>.4.OX`.  c.c.c.",
"l.l.f.X U./.T./.OXXXF.G.G._.5.o + X H ^ ^ ^ ^ A + + + + + + o + + + + + + + + + D ~ [ [ ~ J o o + z._.F.F.F.XXOX/.T.^.W.. k.l.l.",
"f.w.y.O >.C.(.OXOXOXoXOXoXOXQ.d + + o + + + + + + + + + + + + + + + O + + + + + o o + + o o + + f Q.OXOXOXOXOXOXOX(.C.>.o y.a.k.",
"0.; * e `.OXOXOXOXOXOXOXoXOXoX!.+ + + + + + + + + + + + + + + + + + + + + + + + o + + + + + + o Q.oXOXOXOXOXOXOXOXOXOX`.e * e 9.",
"*.}.| OXOXOXOXOXOXOXOXOXOXOXoX!.X + + + + + + + + + + + + + + + + + + + + + + + o o + + + + + o  .{.OXOXOXOXOXOXOXOXOXOXOX| _.*.",
"*._.{ oXoXoX].V.| | | XXXXOX}.S.>.X o + + + + + + + + + + + + + + + + + + + + + + + + + + + + v.B.{.OXOXXX| | | /.OXOXOXOX| _.*.",
"n *._.oXoX'.M.o.M.n.W C..XOX{.B.n.o o + + + + + + + + + + + + + + + + + + + + + + + + + + + X n.D.J.{. XC.W O.M.V.R.OXOXOX).*.;.",
"z C oXoXOXF./ X.D.N.W Q A.E.K.D.n.o + + + + + + + + + + + + + + + + + + + + + + + + + + + + + n.D.D.S.A.Q Q N.D.X.O.R.OXOXOXV 0.",
"m -.x.OXOXC.Q ..O.O.W W W n.D.D.n.o + + + + + + + + + + + + + o + + + + + + + + + + + + + + + M.D.D.O.Q Q Q o.O.{ Q C.OXOXx.&.w.",
"B a.r OXOXY.| Q Q Q Q Q { n.D.M.} o + + + + + + + + X 1 > * 3 + 6 $ 1 , X + o + + + + + + + X ^ N.D.M.{ E E Q Q E / A.OXOXr e.c.",
"B a.i `.XXXXF.Q Q Q Q Q M.B.D. .+ + + + + + + @ : + * H A q I : R 6 K A & # : X + + + + + + + +  .D.D.M...Q W Q Q o.K.XX`.i s.c.",
"B l.c.  n.B.D.n.Q Q Q B.D.D.D. .+ + + + + + + 1 W @ I q A K 3 R . Y 8 D K 3 E . + + + + + + + +  .D.D.D.M.R W R n.B.B.N.. f.c.c.",
"B l.f.f.t b.D.B.N.B.D.D.D.D.[ = + + + + + + 7 U * R 6 J D 0 I * R 6 K A q I = R 1 + + + + + + X = [ D.D.B.B.B.B.B.B.>.t f.f.l.c.",
"B B B B m s p ~ B.D.D.D.D.! s ` o.I # + + + & 3 o 6 $ 1 > & 2 + 6 $ 1 > * 2 + 6 $ + + + 1 U O.>.` s ! D.D.B.B.V.! p s c _ B B B ",
"l.l.l.l.j.q.0.1.{ G G G ^ 1.p.j.g.r.9.7.8.8.0.0.z 0.0.0.0.8.9.8.8.8.8.7.8.8.0.0.0.7.8.0.t.i.P.P.j.e.<.{ G G G { ( 0.y.c.c.l.l.l.",
"c.c.c.c.j.l.l.g.1.C 7.N 1.g.l.l.l.l.l.l.l.l.l.l._ l.l.l.l.l.l.l.c.c.c.c.l.l.l.l.c.c.c.l.l.l.l.l.l.l.g.1.N N N 1.` l.l.l.l.l.l.l.",
"l.l.l.c.c.c.c.c.c.c.l.l.l.c.c.l.l.c.c.l.l.l.l.l.B c.c.c.c.c.c.c.l.l.l.c.c.c.c.c.c.c.l.l.l.c.c.l.l.c.c.l.l.l.l.l._ c.c.c.c.c.c.c.",
"c.l.c.c.c.c.l.l.l.l.l.c.c.c.c.c.c.c.c.c.c.c.l.c.B l.l.l.c.c.c.c.c.l.c.c.c.c.l.l.l.l.l.c.c.c.c.c.c.c.c.c.c.c.l.c.B l.l.l.c.c.c.c.",
"l.l.l.l.l.l.l.l.l.c.c.c.c.c.l.l.l.l.l.l.l.l.c.c.B c.c.l.l.l.c.c.l.l.l.l.l.l.l.l.l.c.c.c.c.c.l.l.l.l.l.l.l.l.c.c.B c.c.l.l.l.c.c.",
"l.l.l.l.c.c.c.c.c.c.c.l.l.l.l.l.l.l.l.l.l.l.l.l.B l.c.c.c.l.l.l.l.l.l.l.c.c.c.c.c.c.c.l.l.l.l.l.l.l.l.l.l.l.l.l.B l.c.c.c.l.l.l.",
"c.c.c.c.c.l.l.l.l.l.l.l.l.l.l.l.l.l.l.c.c.c.c.c.B l.l.l.c.c.c.c.c.c.c.c.c.l.l.l.l.l.l.l.l.l.l.l.l.l.l.c.c.c.c.c.B l.l.l.c.c.c.c."
};
