/* XPM */
static char *wall4[] = {
/* columns rows colors chars-per-pixel */
"64 64 153 2 ",
"   c #130F1E",
".  c #14101F",
"X  c #120E21",
"o  c #161122",
"O  c #191426",
"+  c #1B1529",
"@  c #1E182C",
"#  c #201729",
"$  c #241B2D",
"%  c #281B2F",
"&  c #251B30",
"*  c #2A1D31",
"=  c #311F30",
"-  c #262033",
";  c #2D2335",
":  c #2E2538",
">  c #2F2939",
",  c #352132",
"<  c #3B2332",
"1  c #3A2D36",
"2  c #312639",
"3  c #352A3D",
"4  c #392C3E",
"5  c #3B313E",
"6  c #472A2F",
"7  c #432632",
"8  c #472832",
"9  c #4C2A33",
"0  c #4A2E3B",
"q  c #542E34",
"w  c #582F35",
"e  c #41323C",
"r  c #4C323C",
"t  c #563236",
"y  c #5B3235",
"u  c #55343F",
"i  c #5D363D",
"p  c #5D393F",
"a  c #633535",
"s  c #683735",
"d  c #663B36",
"f  c #693937",
"g  c #62373C",
"h  c #643A3C",
"j  c #6C3C3A",
"k  c #713E3A",
"l  c #6D413A",
"z  c #72433C",
"x  c #78473E",
"c  c #79493F",
"v  c #3B2E42",
"b  c #3D3243",
"n  c #3E3648",
"m  c #443142",
"M  c #4B3443",
"N  c #433847",
"B  c #4E3A44",
"V  c #443A4B",
"C  c #523440",
"Z  c #543A42",
"A  c #5C3D42",
"S  c #483F51",
"D  c #623F42",
"F  c #6B3E42",
"G  c #6B3E49",
"H  c #574347",
"J  c #5A454B",
"K  c #4B4255",
"L  c #4E4459",
"P  c #51475B",
"I  c #554A5D",
"U  c #654142",
"Y  c #6E4145",
"T  c #714641",
"R  c #764942",
"E  c #7B4C41",
"W  c #734349",
"Q  c #714C4D",
"!  c #694F53",
"~  c #6E5253",
"^  c #6F5459",
"/  c #7E5553",
"(  c #71585C",
")  c #7E5D5C",
"_  c #574D60",
"`  c #594E62",
"'  c #5B5066",
"]  c #5E5369",
"[  c #61556A",
"{  c #64586D",
"}  c #695D73",
"|  c #7E6161",
" . c #74677F",
".. c #845347",
"X. c #87554B",
"o. c #8A574C",
"O. c #8B584D",
"+. c #805956",
"@. c #89535C",
"#. c #875E5F",
"$. c #895F5F",
"%. c #935E51",
"&. c #9D6557",
"*. c #93635C",
"=. c #9E6658",
"-. c #885366",
";. c #915862",
":. c #826060",
">. c #8E6361",
",. c #906360",
"<. c #916865",
"1. c #9B6C67",
"2. c #936B6D",
"3. c #9E6272",
"4. c #9C7476",
"5. c #A96975",
"6. c #B26F7D",
"7. c #A67673",
"8. c #A57A77",
"9. c #AB7A76",
"0. c #A37D7E",
"q. c #AB7D7E",
"w. c #B5717F",
"e. c #B7837E",
"r. c #766881",
"t. c #7B6D87",
"y. c #7E708A",
"u. c #857691",
"i. c #897A95",
"p. c #AD8583",
"a. c #B28583",
"s. c #BD8B86",
"d. c #B58B88",
"f. c #BC898A",
"g. c #BB8F90",
"h. c #BE9192",
"j. c #CB948F",
"k. c #C09392",
"l. c #D19A94",
"z. c #D49C99",
"x. c #D6A39F",
"c. c #DBA29E",
"v. c #DEAAA8",
"b. c #E1A7A1",
"n. c #E8ABA5",
"m. c #E2AEA9",
"M. c #EBB4AF",
"N. c #F3B4AD",
"B. c #ECB6B1",
"V. c #F8B7B1",
"C. c #F2BBB5",
"Z. c #FBBAB3",
"A. c #FEC4BE",
/* pixels */
"w.w.6.;.Y Y Y Y Y Y G W F W F F G G F F F W F G F F F W G F F G F W F F F F F W G F W F F W F G F F F W G F W F F W G F @.6.w.w.",
"Z.Z.k.*.X.X.X.X.X.X.X.X.X.X.X.o.X.X.o.o.o.o.o.o.o.o.o.o.o.o.o.o.o.o.o.X.O.o.o.O.X.o.o.X.o.o.o.o.o.o.o.o.X.o.o.X.o.o.X.X.&.e.M.Z.",
"A.A.*...=.=.=.=.=.=.=.=.=.=.=.=.=.=.=.=.&.=.=.=.=.=.&.&.=.=.=.&.&.&.=.=.=.=.&.&.=.=.=.&.&.&.=.&.=.&.&.=.=.=.=.&.&.&.&.=.X./ M.A.",
"Z.Z.>...&.&.&.&.=.=.=.=.&.&.=.=.&.&.&.&.&.&.&.&.&.&.&.&.&.&.&.&.&.&.&.&.&.&.&.&.&.&.&.&.&.&.&.&.&.&.&.&.&.&.&.&.&.&.&.=.O.X.n.V.",
"Z.Z.;...=.=.&.&.&.&.&.&.&.&.&.&.&.&.&.&.&.&.&.&.&.&.&.&.&.&.&.&.&.&.&.&.&.&.&.&.&.&.&.&.&.&.&.&.&.&.&.&.&.&.&.&.&.&.&.=.X.+.n.Z.",
"A.A.<...&.&.&.&.&.&.&.&.&.&.&.&.&.&.&.&.&.&.&.&.&.&.&.&.&.&.&.&.&.&.&.&.&.&.&.&.&.&.&.&.&.&.&.&.&.&.&.&.&.&.&.&.&.&.&.=.O.+.B.A.",
"A.A.,...&.&.&.&.&.&.&.&.&.&.&.&.&.&.&.&.&.&.&.&.&.&.&.&.&.&.&.&.&.&.&.&.&.&.&.&.&.&.&.&.&.&.&.&.&.&.&.&.&.&.&.&.&.&.&.=.X.+.B.A.",
"Z.Z.,...&.&.&.&.&.&.&.&.&.&.&.&.&.&.&.&.&.&.&.&.&.&.&.&.&.&.&.&.&.&.&.&.&.&.&.&.&.&.&.&.&.&.&.&.&.&.&.&.&.&.&.&.&.&.&.=.O./ n.Z.",
"w.w.W ..&.&.&.&.&.&.&.&.&.&.&.&.&.&.&.&.=.=.&.&.&.&.&.&.&.&.&.&.&.&.&.&.&.&.&.&.&.&.&.&.&.&.&.&.&.&.&.&.&.&.&.&.&.&.&.=.o.j 5.i.",
"Z.Z.,...&.&.&.&.&.&.&.&.&.&.&.&.=.=.&.&.&.=.&.&.&.&.&.&.&.&.&.&.&.&.&.&.&.&.&.&.&.&.&.&.&.=.&.&.&.&.&.&.&.&.&.&.&.&.=.=.o.+.n.V.",
"A.A.,.c %.&.&.&.&.&.&.&.&.&.&.&.=.=.=.=.&.&.&.&.&.&.&.&.&.&.&.&.&.&.&.&.&.&.&.&.&.&.&.&.=.=.=.=.&.&.&.&.&.&.&.&.&.&.&.%.E / n.V.",
"A.A.<.j ..%.%.%.%.%.%.%.%.%.%.%.%.%.%.%.%.%.%.%.%.%.%.%.%.%.%.%.%.%.%.%.%.%.%.%.%.%.%.%.%.%.%.%.%.%.%.%.%.%.%.&.%.%.%.X.l X.N.A.",
"Z.Z.,.j E E E ..E ..E E E ..c E E R R R R E E E ..E ..E ..E E E ..E ..c E E ..c ..c E R R R R R c c E ....c E E E E ..E z / n.Z.",
"Z.Z.<.l E E E E E E E E E E E c D M C M M A k E x E E x E E E E E c E E E E E E c c F M B M M u z c c c E E E E E c c E l +.B.A.",
"A.A.<.l E E E E E E E E E R D A M v v v v m 9 t j x E E E E E E E E E E E E E R D A M v v v b m 9 t l c E E E E E E E E l / B.A.",
"Z.Z.>.l E E E E E E E E T D v v 3 2 2 2 2 2 : * q f x E E E E E E E E E E E R D m v 3 2 2 2 2 2 ; % 9 j c E E E E E E E z / n.Z.",
"w.w.W l c E E E E E E E U b v 4 $ o . . o $ 2 ; * w k E E E E E E E E E E E U v b 4 - . . o . $ 4 ; % q k c ..E E E c E z j 5.i.",
"w.Z.<.l c E E E E E E E D b b $ O . o   . o $ 4 = q k E E E E E E E E E E E U v 4 * o o o . . o $ 3 ; 9 k R x c E E x ..z / n.V.",
"w.Z.>.l E E E E E E R U M 3 & o . o o o O O O - * = w k E E E E E E E E E U M v - O X o o o o + O * * , w k c E E E E E z +.N.A.",
"w.A.>.l E E E E E E c Z v 3 o . . b ' S ; + O + $ & 7 j R E E E E E E E E Z v 3 O . X b ` S : + + + $ & < f c E E E E E z X.n.V.",
"w.A.,.l E E E E E E R Z b 3 o . X L r.] b O + O $ & 7 f E E E E E E E E E Z b 3 O .   K r.[ n o + O $ & = j c E E E c c l / n.A.",
"w.A.<.l E E E E E E E Z v 3 O . X v ' I b O O + & & 7 f c E E E E E E E E Z v 3 . .   3 ` I n + o @ $ * 7 j x E E E c ..z / M.A.",
"w.A.<.l E E E E E E E Z v 2 O . o - > v - O + O $ $ 7 j c E E E E E E E R A b 4 O . O $ 3 v * O @ O $ $ 7 j c E E E E E z / M.A.",
"w.V.,.l E E E E E E E h M 4 , O o o + o O + + @ $ 7 a z E E E E E E E E E F r 4 ; O o + X O O + + @ $ < y k E E E E c c l / n.Z.",
"w.w.T l E E E E E E E c p v v ; + o + + + + # % % q k E E E E E E E E E E x h b v * + o + + + + # % $ 9 z E E E E E E ..z l 5.w.",
"Z.Z.>.l E E E E E E E c D m v v - + + @ O # % % = w k R E E E E E E E E E E U m v v 2 O + # + + % % = t z c E E E E c c z / n.Z.",
"A.A.<.l E E E E E E E E z i m b v v > - % % * = w k c ..E E E E E E E E E E z g m v v 3 3 * % $ % = t z c c E E E E E c l / n.Z.",
"Z.Z.>.l E E E E E E E E c z g g 0 : : * % 7 w y k c c x E E E E E E E E E E E z g g 0 2 2 % $ 7 y y l c E E E E E E E ..z / M.A.",
"A.Z.<.l c c E E E E E E E c z z y 9 9 9 9 a k x E E E E E E E E E E E E E E E E k x a q 9 9 9 y z z c E E E E E E E E E z ) M.A.",
"Z.Z.>.l E c E E E E E E E E T T l f h h h k x E E E E E E E E E E E E E E E E E E E k h h j j f z c E c E E E E E E E E l / M.A.",
"Z.Z.>.l E E E E E E E E E T B M M m m M M C k R E E E E E E E E E E E E E E E E R E D M M m m M M M h z c c E E E E E E l / n.Z.",
"A.A.<.l E E E E E E E U H u b b v v v v v m C D j c E E E E E E E E E E E E E R D Z M v v v v v v v M Z D x c E E E E c z / M.A.",
"w.w.W l E E E E E R U M v b b > 2 2 ; 2 v v v v C j x E E c c c E E E E E c R U b b b 4 2 ; 2 2 2 b v b m i j x E E E E z F 5.w.",
"Z.Z.>.l E E E E R U M b 5 3 2 @ . . . o - 3 v v m u f R E x ..x E E E E E R A b b 3 3 ; O . . . O 2 3 4 v m i k c E E E z / n.Z.",
"A.A.<.l E E E R U M 5 5 ; O O o . . . . o O $ 3 v 3 9 f x E x ..E E E E R A m v 5 - O O . . . . . O O ; v v 2 w z E E E z / M.A.",
"Z.Z.>.l E E E U M 4 - $ +       . . . . . . o $ & * 4 9 f x x ..E E E R A m 2 $ @ O     . . . . .     O $ $ 3 1 q k c E z / n.Z.",
"Z.Z.>.l E E U M 3 - .   X   .   . . . O X O O X   $ * * 9 f F x E E T A m 2 $ .   . .   . . o o O . o o   X * * , w l c l ) n.Z.",
"A.A.<.l E T M b > o . . . . . O . o o @ O + + O X o # * % w x ..E E Y b v $ . . . . . o o . o O @ O + + o o X @ $ , s c z / M.A.",
"A.A.>.l E T M v ; . . . o X o + + O @ o + + O @ + X $ & % q f ..E E U b 4 $ . . . . . O @ o + + O @ O + @ o + $ * = a z l / M.A.",
"Z.Z.>.l T C b ; O . . . o o + + + @ + @ O + + o + + + $ % = q k c U M 5 $ o . .     + + + @ @ + @ o + + O + + @ & * < a j / n.Z.",
"w.w.W l Y b b $     .   O + o o L } { > o + + + + + + + & & 8 f c p b 3 O . . . . O @ o - ] } I @ + + + + O + + @ % * w s F 5.6.",
"Z.Z.<.l l b b $   . . O + + - K r.i.y.L - + O + O + + O & & 8 k c H b 3 # . . . O O o > ' y.i.r.v @ o + + O + + + % * w s / n.Z.",
"A.A.*.l Y m b $   . o + + o v r.u.u.t.] v o + o + + O # & & 7 k E A v v O . . o + O X L y.i.u.r._ & + + o + O O $ * * w s / n.Z.",
"A.A.<.l l b b -       o O O - r.i.t.{ ` n O O @ O + + O # & 7 k z A v 3 # . . . o + X K y.u. .] _ : o + + + + + O % % w s / M.A.",
"Z.Z.*.l U b b &   . o + + O - L { } ` n - o + + + + O + $ % 8 j E A v v +   . o + + O v P } ] P n @ + + O + + + # & * w s / n.Z.",
"Z.Z.<.l T b b $       O + + + X v S S - + + + + + + O + % % 8 j c A v 4 +   . o + + + O + n K b + o + + O + O + @ * & w s / B.A.",
"A.A.<.l Y M b - + o . . o + + + O + @ + + + o + O + + O $ = q k E D m 4 $ . . . X + O O @ + @ + o + + + + O + + + * < a s / B.A.",
"Z.Z.,.l z j m v - o . X X + + o + + o + + + @ o + + + % % q k E E z i v 4 $ . . o o + + o + + + @ o + + O + + # * = a z k / n.V.",
"i.w...f E z M v 2 o . . O + O + + o + + + + O + + + @ * * w k E c c D m v *     o O + O + O + @ + + + + + O + # * = a x z F 5.6.",
"w.V.*.k E E i m 3 * o   o + + + + O + + + + + + + + & * 9 s R E E c W C v 2 #     O + + + + O + + + + o + + $ # = w k x l / n.Z.",
"i.Z.*.l E c z i m 4 $ # O o + o + @ O @ o O + O $ % * 8 f x E E E E x k Z m 3 $ # O O O X + O O + + + + + $ * = w k R ..k +.M.A.",
"w.A.,.l E E E z i m b v ; O O o X o + O + @ + $ & * 8 f x E E E E E E E f u v v 4 $ O O X o O @ o + + + $ % = q F E E E z +.n.Z.",
"w.Z.*.l E E E E k D m v 5 3 2 #   o o . # $ % * % 9 f R E E E E E E E E x k C m b 3 3 2 o   o o o & $ % * * w z c E E E l / n.A.",
"w.A.<.l E E E E R k g m b v b 2 ; : ; $ % * $ % 9 s x E E E E E E E E E E x k C v b v 4 2 ; 2 - $ & & & = w k c E E E E z / M.A.",
"w.Z.<.l E E E E E E z g C M v 3 3 3 3 * & < 8 9 s R E E E E E E E E E E E E E j Z C m 3 3 3 3 2 & * < 8 w k x E E E E E l / M.A.",
"w.Z.*.l E E E E E E E z f a 7 , < , < < = q j j R E E E E E E E E E E E E E E x k f y < < < < < , < a k k E E E E E E E z / n.Z.",
"w.w.W l c c E c E E c c c z d a s s a a s j c c E c R E R E E E E c E E E E R c R E l s s s d a a d l x c c c c E E E E z G 5.w.",
"Z.V.c.1.l d l d d s d l d d a y y a a a a a a s d d d d d d d d d l d g d d d d d d s a a y a y a a d l l d l l d d d d >.l.N.Z.",
"A.A.A.x.8.7.>.U 8 r r 8 U #.$.$.#.#.:.;.#.#.#.#.G #.#.#.#.#.;.:.>.>.:.>.#.#.$.$.:.>.>.-.#.;.:.$.#.#.$.Q 6 0 r 6 t :.7.9.j.Z.Z.Z.",
"Z.Z.Z.A.A.C.g.^ 4 N M Z 2.h.h.s.d.h.h.f.s.s.s.f.-.h.h.h.h.h.h.g.s.f.f.h.g.h.h.h.g.h.f.f.f.f.h.d.s.g.h.4.H e V 5 r a.B.A.A.A.A.A.",
"A.Z.A.A.A.B.:.5 N b 5 4.h.h.h.h.k.k.h.k.h.k.f.h.-.f.f.f.k.h.k.h.k.f.k.h.h.h.f.f.f.f.f.k.k.k.k.g.h.h.h.f.0.B b N 5 ~ b.Z.A.A.A.A.",
"Z.Z.Z.Z.Z.n.~ 5 V m 1 0.h.h.f.f.f.f.f.f.f.f.h.h.-.h.h.f.f.f.h.h.f.f.f.f.f.f.f.f.f.g.k.k.k.g.f.s.f.f.f.f.q.M b V b H m.Z.Z.Z.A.A.",
"Z.Z.Z.Z.A.A.h.( 5 J p.l.v.c.c.c.c.c.c.c.c.c.c.c.3.c.v.v.v.c.c.c.c.c.c.c.v.v.v.v.v.v.v.c.c.c.c.c.c.c.v.c.z.a.! 4 B a.C.A.A.Z.Z.Z.",
"A.A.A.A.A.Z.V.s.| 8.N.Z.V.Z.Z.Z.Z.Z.Z.A.A.A.A.A.w.Z.Z.Z.A.A.A.A.A.A.A.A.A.Z.Z.Z.Z.Z.Z.Z.Z.Z.Z.Z.Z.Z.Z.A.A.Z.d.| +.N.Z.Z.A.A.A.A."
};
