/* XPM */
static char *wall5[] = {
/* columns rows colors chars-per-pixel */
"64 64 92 1 ",
"  c #562C27",
". c #572D29",
"X c #5A2F29",
"o c #57312C",
"O c #5B322D",
"+ c #5C3531",
"@ c #5F3936",
"# c #63342D",
"$ c #68362F",
"% c #653730",
"& c #693730",
"* c #663934",
"= c #6B3933",
"- c #613B38",
"; c #693C3C",
": c #733C35",
"> c #6E443E",
", c #764239",
"< c #7E463D",
"1 c #663B46",
"2 c #6E4642",
"3 c #6C404D",
"4 c #6E4948",
"5 c #76454B",
"6 c #724C4B",
"7 c #7C494F",
"8 c #7C504B",
"9 c #7D4A51",
"0 c #7C4C5F",
"q c #7C5453",
"w c #7D4C60",
"e c #874D42",
"r c #884D42",
"t c #82514B",
"y c #834E56",
"u c #835A56",
"i c #87525A",
"p c #8E565F",
"a c #835C5C",
"s c #8A5F5B",
"d c #8E605A",
"f c #965C66",
"g c #90596A",
"h c #856061",
"j c #8D6465",
"k c #8D6769",
"l c #8E696A",
"z c #936762",
"x c #986B66",
"c c #956B6D",
"v c #986D69",
"b c #9B706C",
"n c #A2716C",
"m c #A66773",
"M c #AB6A77",
"N c #AD6C79",
"B c #B06E7B",
"V c #A27577",
"C c #A97974",
"Z c #A47779",
"A c #A5787A",
"S c #AA7C7E",
"D c #B5717F",
"F c #AF837E",
"G c #B1847F",
"H c #A77E80",
"J c #A87F81",
"K c #AC8385",
"L c #B18480",
"P c #B68985",
"I c #BE8A84",
"U c #C18C86",
"Y c #C38E8A",
"T c #C0918C",
"R c #CB948E",
"E c #C79290",
"W c #C79897",
"Q c #C99A99",
"! c #D79D97",
"~ c #D19F9A",
"^ c #E2A6A0",
"/ c #E4A8A2",
"( c #E9ACA6",
") c #EEAFA9",
"_ c #E7B1AB",
"` c #EFB1AA",
"' c #F2B3AC",
"] c #EEB7B2",
"[ c #F8B7B1",
"{ c #F2BAB4",
"} c #FBBAB3",
"| c #FEC4BE",
/* pixels */
"DDDBf977799777777777777777777777777777776776t7777777777767pMDDDD",
"}}`!n=%%%#%%%%%%&&&%%%%%%$%%%%%%%%%%%%%%#>$%%$%%%%%%%*%%%%z~]}}}",
"||~vt<<<<<<<<<<<<<r1<<<<<<<<<<<<<<<<<<<<<<<<<<<<<<<<<<<<<<edI|||",
"}}I>,eeeeerrrrrrrrrrrrrrrrrrrrrrrrrrrrrrrrrrrrrrrrrrrrrrrr<OC}}}",
"}}I>,eeeeeeerrrreeeeeereeeeeeeeeeeeerrrreeeeeeeererereeeee<*F|[[",
"||Y2,eeeereerrereeeeeeeeeeeeeeeeeeeerrrreeeeeeeeeererreeee<*F|||",
"||I>,eeeeeeeeereeeeeeeeeeeeeeereereererreeeeeeeeeerreeeeee<%F|||",
"}}I>,eeeeeeeeeeereeeeeeeeereeeeeeeeeeeeeeeeeeeeeeereeeerer,*C}}}",
"DDp*,ereeeeeeeeeeeeeeeeeeeeeeeeeeeeereeeeeeeeeeeeeeeeeeeee<%qDDD",
"}}I4,ereeeeeeeereeeeeeeeeeeeeeeeeeeeeeeeeeeeeeeeeeeeeeeeee<*S}}}",
"||I2,ereereeeeeeerreeeeeeeeeeeeeeeeeeeeeeeeeeeeeeeeeeeeeee<%C}}}",
"||I2,ereeeeeeeeeererereeeeeeeeeeereeeeeeeeeeeeeereeeeeeeee<-F|||",
"}}I>,ereeeereeeerrereeeeeeeeeeeeeeeeeeeeeeeeeeeeeeeeeeeeee<%C|[}",
"}}I2,ereeeeeeeererrereeeeeeeeeeeeeeeeeeeeeeeeeeeeeeeeeeeee<-F|||",
"||I4,eeeeeeeeeeeeeeeeeeeeeeeeeeeeeereeereeeeeeeereeeeeeeee<*C}||",
"}|I2,reeeeeeeeeeeeeeeeeeeeeeeeeeeeeeeeeeeeeeeeeeeeeeeeeeee,*F}}}",
"DDp*,rrreeeeereereereeeeeeeeeeeerrereeeeeeeeeeeeeeeeerreee<%8DDD",
"D}T2,rrreeeeeeeeeeeeeeeeeeeeeeeeeerreeeeeeeeeeeeeeeereeree,%C}}}",
"D}G2,erreeereeeeeeeereeeeeeeeeeeeereereeeeeeeeeereeeerreee<+F|||",
"D|U,,erreeeeeeeeeeeeeeeeeeeeeeeeeeerreeereereereeeeerreeee<>C}}}",
"D|I2,eeeeeeeeeeeeeeeeeeeeeeerrrreeeeeeeeeeeeeeeeeeeeeeeeee<%C[}|",
"D|T4,eeeeeeeeeeeeeeeeeeeeeeerr<reeeeeeereeeeeeeeeereeeeree<-F|||",
"D}I2,eeeeereeerrereereeeeeeerrrreeereeeeeeeeeerreeeeeeeeee<%C}||",
"D}I>,eeeeeeeeerreeeeeeeeeeerrrrreeeeeeeereeerrrreeeeeeeeee<*C}}}",
"DDp*,eeeeeeerrrreeeerrrrrreerrrreerrrrrrrrrrrrrrrrrrereree,%yDDD",
"}}I2:<<<<<<<<<<<<<<<<e<<<<<:<r<<r1<<<<<<<r<<<<<<<<<<<<<<<<,%F}}}",
"||T2&:::,:::::::::::::::<::::::::::,::::::::::::::::::::,:=%C}}}",
"}}I;$:::::::::::::::::::::::::::::::::::::::::::::::::::::&XC|||",
"|}Wd>=:::::=::::::::=:=:::=:=::&::&::::::====:=:::::=::::=,8I|||",
"}}(Rx%O######X###%##############X###$#################O##OdI^}||",
"}}})G@ X ......X.... ......X......X. X  XX....X...  X.... b_|}}}",
"|||{GOXXXXXXXXXX.XXX.XXXXXXXXXXXXXXXXXXXXXXXXXXXXXX.XXXo. v/||||",
"DDDNiXX##############O#####################O######O###O#X 5mDDDD",
"}}})SOO$#&#%#&#$$$$$$$$$#&#$%&#&$$$%%$$#$$$$$$%%$$$$$$$$#Xb_|}}}",
"|||{G##&&%O#####O##O#X####X##XX######+##O##OO####O#X##$$#Xx/}|||",
"}}})G+#&&#  +OO+.OO++O++X+++O+++XXOOO+..OO+OOO+o.+OOX#$:$ v/}}}}",
"}}}`S##&&XX2ahah1haaaahhaaahhhaaaaaapiwhaaaaahah1ha5oo$$$ x_||}}",
"|||{L+#&&#+qAJJJ0HJHAAAAJJJJHKJJJJJJHHAAZKKSJJJJ0HJj*O$$$Xb_||||",
"||}`C%%&&O+qAJJKwSSKKKSJSJJKLKKKKLHDSJJJSSJSSJJK0JSl-O$$# x_||||",
"}}}`K+#&&%ohASSSwJSSSSDSSSSJSSJSJJHJLKKKSDSSSSSS0SAj@O$$$Xx/}}}}",
"DDDNy.#&&OX1wwww00ww000000000ww0www000w00000www00003 #$&# 5mDDDD",
"}}}{G*#&&#OqAJSSKKKKKKKKKKKKKSSSSSSKKKKK0SSSSSSSKKKl-#$&$Xb_|}}}",
"||}`S+#$&#+hHJSSSSSSSSSSSSJJSSSSKKSSSSSKwKKKKSSJSSZj+O$&#Xx/}}}}",
"|||{S+#%&OohHKKKKSSSSSSKKSDKKKKKKKKKSSSS0SKKKKKJKSFd+#$&# x_||||",
"}}}`G%#%&OOqZSSSSKKKKKSKJKJKKKSSSSJSJKJD0SSSSSSSSKKl-X$&$Xx_||}}",
"}}|[G$#&&#OaZDJSJJKJKKSSSJSJKKKKSSKKKJHJwKKSSSSSSSKl-#$&# x_||||",
"|||`FO#$&#OaKKJSSSSSKKKKKKSSSSKKKKKSSJSK0KKKKKSJSSZj-X$&$ x/}}||",
"}}}`G+#&%#oaJKKJSSSSSSSJJKJKKSSSSSSSJKLK0SSSKKKKSSAj-O$&% b_|}}}",
"DDDNyo$$&#.10ww0ww0wwwww0w00w00w00ww0www000w00ww0yw1.O$$$X5mDDDD",
"D}|{S%#$$#OaHKKSSSAKKKKKKSSSSSSS0SKKSJAKKKKKKKKSSSHc@#$$#Xx/}}}}",
"D}}{GO#&%#ouZHSSSKSSSSKKKKKKKKKK0SSKKKKKSSSSSSJDJKHj@O$&$Xv_||||",
"D|}`FO#&&#oaHKKKKKKKKSSSSSKKSSSSwKSSSSSSSSSSKKLPJKJk*#$&#Xb_}}}}",
"D|}{G@#&&O+hHJSSSSSSSKKKKSJSSSSK0KAKKKKKKKKKJJJDJJSf@O$&$ x/}}}|",
"D||{GO#%&#oqZKKSSSSKKKKKKKKKKKKK0KKKKSSSSSSSJJJJSSSl*X$&$Xb_||||",
"D}|`FO#&&#OaAJKKKKKKKSSSSSSHSSKKwSKJSSSSSSJSJJKJJJJv@O$&# x^}}||",
"D}}`G%#&&#OhSSJSJSSSSSKKKKSASSSJ0SSSKKKKKKKKJJJJJJJf@O$$$Xx/}}}}",
"DDDNyX#&%#.10wwwww0w00ww000w0w00w0w00w00ywwwwwyw0003o#$&# 5mDDDD",
"}}}'S+#&$#+hAKSSSSSSSSKKwKKKKSSSSSSSSSKKJJJJKKSDSSZj*X$&% b_|}}}",
"|||{F##%&OOqZJHSSSSDSSSS0ASSSSSSKKKKSSSSKKKSJJJJSSZj@X$&$ x/}}}}",
"}}}{GO#&&#OaZKKSSKKJSSSSwKKKKKKKSSSKKKKKKKSSJJJJSKKj*O&&$ b_||||",
"|}|{GO#&&#.hHKKKJKKJKKSKwAJSKKKKJHKJKKSSSJSKKKKKKKKl@O&&$ z/||||",
"}}}'Us,##-4kHKSJSSJHSAKKwKKSSSKKJSJSAJSJSJJKKKSSSSAc6-#%%uP(}}||",
"}}}']~xX.6cVSSSSSSSJSJSS0SKKKSSSDSJSKKJKKKKSSSSSSSSZvq+ ;U_||}}}",
"|||||(UbnSYEEEEEEEEWQWQQgEEEQQQQQQQQQEEEEEEEEEEEEEEQWPCbi/}}||||"
};
