/* XPM */
static char *wall3[] = {
/* columns rows colors chars-per-pixel */
"64 64 24 1 ",
"  c #6A3939",
". c #73433A",
"X c #75433C",
"o c #6A3D45",
"O c #7B4C41",
"+ c #7B4E48",
"@ c #5A4F70",
"# c #645A79",
"$ c #8D5548",
"% c #89554C",
"& c #8F5C4F",
"* c #925E54",
"= c #9D6557",
"- c #AE7062",
"; c #B5717F",
": c #6D6284",
"> c #7C738D",
", c #867498",
"< c #998BA8",
"1 c #A290B3",
"2 c #AEA3B9",
"3 c #FBBAB3",
"4 c #C5B2D8",
"5 c #D3CDD9",
/* pixels */
";;%%%%%%%%%%%%%%%%%%%%%%%%%%%%%%%%%%%%%%%%%%%%%%%%%%%%%%%%%%%%;;",
"33%%%%%%%%%%%%%%%%%%%%%%%%%%%%%%%%%%%%%%%%%%%%%%%%%%%%%%%%%%%%33",
"%%============================================================++",
"..OOOOOOOOOOOOOOOOOOOOOOOOOOOO@@@@OOOOOOOOOOOOOOOOOOOOOOOOOOOO  ",
"..OOOOOOOOOOOOOOOOOOOOOOOOOOOO@@@@OOOOOOOOOOOOOOOOOOOOOOOOOOOO  ",
"..OOOOOOOOOOOOOOOOOOOOOOOOOO@@4444@@OOOOOOOOOOOOOOOOOOOOOOOOOO  ",
"%%%%%%%%%%%%%%%%%%%%%%%%%%%%@@4444@@%%%%%%%%%%%%%%%%%%%%%%%%%%++",
"%%%%%%%%%%%%%%%%%%%%%%%%%%%%@@4444@@%%%%%%%%%%%%%%%%%%%%%%%%%%++",
"%%==&&&&&&&&&&&&@@2222@@&&@@@@1111@@@@&&@@2222@@&&&&&&&&&&&&==++",
"%%==&&&&&&&&&&&&@@2222@@&&@@@@1111@@@@&&@@2222@@&&&&&&&&&&&&==++",
"%%==&&========@@2222<<<<@@22@@,,,,@@22@@2222<<<<@@========--==++",
"%%==&&======5555555555555555@@1111@@5555555555555555======--==++",
"%%==&&======5555555555555555@@1111@@5555555555555555======--==++",
"%%==&&====55@@@@############@@,,,,@@############::::55====--==++",
"%%==&&==55@@@@@@################################::::::22==--==++",
"%%==&&==55@@@@@@################################::::::22==--==++",
"%%==&&==55@@@@####################################::::22==--==++",
"%%==&&==55@@@@####################################::::22==--==++",
"%%==&&==55@@@@####################################::::22==--==++",
"%%==&&==55@@>>>>>>>>>>>>>>##########>>>>>>>>>>>>>>>>::22==--==++",
"%%==&&==55@@>>>>>>>>>>>>>>##########>>>>>>>>>>>>>>>>::22==--==++",
"%%==&&==55>>>>>>>>>>>>>>####@@@@@@####>>>>>>>>>>>>>>>>22==--==++",
"%%==&&====22222222222222222222222222222222222222222222====--==++",
"%%==&&====22222222222222222222222222222222222222222222====--==++",
"%%==&&------------------------------------------------------==++",
"%%==&&------------------------------------------------------==++",
"$$$$$$$$$$$$$$$$$$$$$$$$$$$$$$$$$$$$$$$$$$$$$$$$$$$$$$$$$$$$$$++",
"%%$$$$$$$$$$$$$$$$$$$$$$$$$$$$$$$$$$$$$$$$$$$$$$$$$$$$$$$$$$$$++",
"%%$$$$$$$$$$$$$$$$$$$$$$$$$$$$$$$$$$$$$$$$$$$$$$$$$$$$$$$$$$$$++",
"..XXXXXXXXXXXXXXXXXXXXXXXXXXXXXXXXXXXXXXXXXXXXXXXXXXXXXXXXXXXX  ",
"..OOOOOOOOOOOOOOOOOOOOOOOOOOOOOOOOOOOOOOOOOOOOOOOOOOOOOOOOOOOO  ",
"..OOOOOOOOOOOOOOOOOOOOOOOOOOOOOOOOOOOOOOOOOOOOOOOOOOOOOOOOOOOO  ",
"..OOOOOOOOOOOOOOOOOOOOOOOOOOOOOOOOOOOOOOOOOOOOOOOOOOOOOOOOOOOO  ",
"..OOOOOOOOOOOOOOOOOOOOOOOOOOOOOOOOOOOOOOOOOOOOOOOOOOOOOOOOOOOO  ",
"..OOOO....................................................OOOO  ",
"..OOOO..**********************..************************..OOOO  ",
"..OOOO..**********************..************************..OOOO  ",
"..OOOO..**OOOOOOOOOOOOOOOOOOoo..**OOOOOOOOOOOOOOOOOOOOoo..OOOO  ",
"..OOOO..**OOOOOOOOOOOOOOOOOOoo..**OOOOOOOOOOOOOOOOOOOOoo..OOOO  ",
"..OOOO..**OOOOOOOOOOOOOOOOOOoo..**OOOOOOOOOOOOOOOOOOOOoo..OOOO  ",
"..OOOO..**OOOOOOOOOOOOOOOOOOoo..**OOOOOOOOOOOOOOOOOOOOoo..OOOO  ",
"..OOOO..**OOOOOOOOOOOOOOOOOOoo..**OOOOOOOOOOOOOOOOOOOOoo..OOOO  ",
"..OOOO..**OOOOOOOOOOOOOOOOOOoo..**OOOOOOOOOOOOOOOOOOOOoo..OOOO  ",
"..OOOO..**OOOOOOOOOOOOOOOOOOoo..**OOOOOOOOOOOOOOOOOOOOoo..OOOO  ",
"..OOOO..**OOOOOOOOOOOOOOOOOOoo..**OOOOOOOOOOOOOOOOOOOOoo..OOOO  ",
"..OOOO..**OOOOOOOOOOOOOO22OOoo..**OO22OOOOOOOOOOOOOOOOoo..OOOO  ",
"..OOOO..**OOOOOOOOOOOOOO22OOoo..**OO22OOOOOOOOOOOOOOOOoo..OOOO  ",
"..OOOO..**OOOOOOOOOOOOOO22OOoo..**OO22OOOOOOOOOOOOOOOOoo..OOOO  ",
"..OOOO..**OOOOOOOOOOOOOO22OOoo..**OO22OOOOOOOOOOOOOOOOoo..OOOO  ",
"..OOOO..**OOOOOOOOOOOOOO22OOoo..**OO22OOOOOOOOOOOOOOOOoo..OOOO  ",
"..OOOO..**OOOOOOOOOOOOOOOOOOoo..**OOOOOOOOOOOOOOOOOOOOoo..OOOO  ",
"..OOOO..**OOOOOOOOOOOOOOOOOOoo..**OOOOOOOOOOOOOOOOOOOOoo..OOOO  ",
"..OOOO..**OOOOOOOOOOOOOOOOOOoo..**OOOOOOOOOOOOOOOOOOOOoo..OOOO  ",
"..OOOO..**OOOOOOOOOOOOOOOOOOoo..**OOOOOOOOOOOOOOOOOOOOoo..OOOO  ",
"..OOOO..**OOOOOOOOOOOOOOOOOOoo..**OOOOOOOOOOOOOOOOOOOOoo..OOOO  ",
"..OOOO..**OOOOOOOOOOOOOOOOOOoo..**OOOOOOOOOOOOOOOOOOOOoo..OOOO  ",
"..OOOO..**OOOOOOOOOOOOOOOOOOoo..**OOOOOOOOOOOOOOOOOOOOoo..OOOO  ",
"..OOOO..**OOOOOOOOOOOOOOOOOOoo..**OOOOOOOOOOOOOOOOOOOOoo..OOOO  ",
"..OOOO..**oooooooooooooooooooo..**oooooooooooooooooooooo..OOOO  ",
"..OOOO....................................................OOOO  ",
"..OOOO....................................................OOOO  ",
"..OOOOOOOOOOOOOOOOOOOOOOOOOOOOOOOOOOOOOOOOOOOOOOOOOOOOOOOOOOOO  ",
"..............................................................  ",
"..............................................................  "
};
