/* XPM */
static char *wall1[] = {
/* columns rows colors chars-per-pixel */
"64 64 13 1 ",
"  c #6A3939",
". c #73433A",
"X c #75433C",
"o c #6A3D45",
"O c #7B4C41",
"+ c #7B4E48",
"@ c #8D5548",
"# c #89554C",
"$ c #925E54",
"% c #9D6557",
"& c #B5717F",
"* c #AEA3B9",
"= c #FBBAB3",
/* pixels */
"&&############################################################&&",
"==############################################################==",
"##%%%%%%%%%%%%%%%%%%%%%%%%%%%%%%%%%%%%%%%%%%%%%%%%%%%%%%%%%%%%++",
"..OOOOOOOOOOOOOOOOOOOOOOOOOOOOOOOOOOOOOOOOOOOOOOOOOOOOOOOOOOOO  ",
"..OOOOOOOOOOOOOOOOOOOOOOOOOOOOOOOOOOOOOOOOOOOOOOOOOOOOOOOOOOOO  ",
"..OOOOOOOOOOOOOOOOOOOOOOOOOOOOOOOOOOOOOOOOOOOOOOOOOOOOOOOOOOOO  ",
"..OOOOOOOOOOOOOOOOOOOOOOOOOOOOOOOOOOOOOOOOOOOOOOOOOOOOOOOOOOOO  ",
"..OOOOOOOOOOOOOOOOOOOOOOOOOOOOOOOOOOOOOOOOOOOOOOOOOOOOOOOOOOOO  ",
"##############################################################++",
"##############################################################++",
"##%%%%%%%%%%%%%%%%%%%%%%%%%%%%%%%%%%%%%%%%%%%%%%%%%%%%%%%%%%%%++",
"##%%%%%%%%%%%%%%%%%%%%%%%%%%%%%%%%%%%%%%%%%%%%%%%%%%%%%%%%%%%%++",
"##%%%%%%%%%%%%%%%%%%%%%%%%%%%%%%%%%%%%%%%%%%%%%%%%%%%%%%%%%%%%++",
"##%%%%%%%%%%%%%%%%%%%%%%%%%%%%%%%%%%%%%%%%%%%%%%%%%%%%%%%%%%%%++",
"##%%%%%%%%%%%%%%%%%%%%%%%%%%%%%%%%%%%%%%%%%%%%%%%%%%%%%%%%%%%%++",
"##%%%%%%%%%%%%%%%%%%%%%%%%%%%%%%%%%%%%%%%%%%%%%%%%%%%%%%%%%%%%++",
"##%%%%%%%%%%%%%%%%%%%%%%%%%%%%%%%%%%%%%%%%%%%%%%%%%%%%%%%%%%%%++",
"##%%%%%%%%%%%%%%%%%%%%%%%%%%%%%%%%%%%%%%%%%%%%%%%%%%%%%%%%%%%%++",
"##%%%%%%%%%%%%%%%%%%%%%%%%%%%%%%%%%%%%%%%%%%%%%%%%%%%%%%%%%%%%++",
"##%%%%%%%%%%%%%%%%%%%%%%%%%%%%%%%%%%%%%%%%%%%%%%%%%%%%%%%%%%%%++",
"##%%%%%%%%%%%%%%%%%%%%%%%%%%%%%%%%%%%%%%%%%%%%%%%%%%%%%%%%%%%%++",
"##%%%%%%%%%%%%%%%%%%%%%%%%%%%%%%%%%%%%%%%%%%%%%%%%%%%%%%%%%%%%++",
"##%%%%%%%%%%%%%%%%%%%%%%%%%%%%%%%%%%%%%%%%%%%%%%%%%%%%%%%%%%%%++",
"##%%%%%%%%%%%%%%%%%%%%%%%%%%%%%%%%%%%%%%%%%%%%%%%%%%%%%%%%%%%%++",
"##%%%%%%%%%%%%%%%%%%%%%%%%%%%%%%%%%%%%%%%%%%%%%%%%%%%%%%%%%%%%++",
"##%%%%%%%%%%%%%%%%%%%%%%%%%%%%%%%%%%%%%%%%%%%%%%%%%%%%%%%%%%%%++",
"##@@@@@@@@@@@@@@@@@@@@@@@@@@@@@@@@@@@@@@@@@@@@@@@@@@@@@@@@@@@@++",
"##@@@@@@@@@@@@@@@@@@@@@@@@@@@@@@@@@@@@@@@@@@@@@@@@@@@@@@@@@@@@++",
"##@@@@@@@@@@@@@@@@@@@@@@@@@@@@@@@@@@@@@@@@@@@@@@@@@@@@@@@@@@@@++",
"..XXXXXXXXXXXXXXXXXXXXXXXXXXXXXXXXXXXXXXXXXXXXXXXXXXXXXXXXXXXX  ",
"..OOOOOOOOOOOOOOOOOOOOOOOOOOOOOOOOOOOOOOOOOOOOOOOOOOOOOOOOOOOO  ",
"..OOOOOOOOOOOOOOOOOOOOOOOOOOOOOOOOOOOOOOOOOOOOOOOOOOOOOOOOOOOO  ",
"..OOOOOOOOOOOOOOOOOOOOOOOOOOOOOOOOOOOOOOOOOOOOOOOOOOOOOOOOOOOO  ",
"..OOOOOOOOOOOOOOOOOOOOOOOOOOOOOOOOOOOOOOOOOOOOOOOOOOOOOOOOOOOO  ",
"..OOOO....................................................OOOO  ",
"..OOOO..$$$$$$$$$$$$$$$$$$$$$$..$$$$$$$$$$$$$$$$$$$$$$$$..OOOO  ",
"..OOOO..$$$$$$$$$$$$$$$$$$$$$$..$$$$$$$$$$$$$$$$$$$$$$$$..OOOO  ",
"..OOOO..$$OOOOOOOOOOOOOOOOOOoo..$$OOOOOOOOOOOOOOOOOOOOoo..OOOO  ",
"..OOOO..$$OOOOOOOOOOOOOOOOOOoo..$$OOOOOOOOOOOOOOOOOOOOoo..OOOO  ",
"..OOOO..$$OOOOOOOOOOOOOOOOOOoo..$$OOOOOOOOOOOOOOOOOOOOoo..OOOO  ",
"..OOOO..$$OOOOOOOOOOOOOOOOOOoo..$$OOOOOOOOOOOOOOOOOOOOoo..OOOO  ",
"..OOOO..$$OOOOOOOOOOOOOOOOOOoo..$$OOOOOOOOOOOOOOOOOOOOoo..OOOO  ",
"..OOOO..$$OOOOOOOOOOOOOOOOOOoo..$$OOOOOOOOOOOOOOOOOOOOoo..OOOO  ",
"..OOOO..$$OOOOOOOOOOOOOOOOOOoo..$$OOOOOOOOOOOOOOOOOOOOoo..OOOO  ",
"..OOOO..$$OOOOOOOOOOOOOOOOOOoo..$$OOOOOOOOOOOOOOOOOOOOoo..OOOO  ",
"..OOOO..$$OOOOOOOOOOOOOO**OOoo..$$OO**OOOOOOOOOOOOOOOOoo..OOOO  ",
"..OOOO..$$OOOOOOOOOOOOOO**OOoo..$$OO**OOOOOOOOOOOOOOOOoo..OOOO  ",
"..OOOO..$$OOOOOOOOOOOOOO**OOoo..$$OO**OOOOOOOOOOOOOOOOoo..OOOO  ",
"..OOOO..$$OOOOOOOOOOOOOO**OOoo..$$OO**OOOOOOOOOOOOOOOOoo..OOOO  ",
"..OOOO..$$OOOOOOOOOOOOOOOOOOoo..$$OOOOOOOOOOOOOOOOOOOOoo..OOOO  ",
"..OOOO..$$OOOOOOOOOOOOOOOOOOoo..$$OOOOOOOOOOOOOOOOOOOOoo..OOOO  ",
"..OOOO..$$OOOOOOOOOOOOOOOOOOoo..$$OOOOOOOOOOOOOOOOOOOOoo..OOOO  ",
"..OOOO..$$OOOOOOOOOOOOOOOOOOoo..$$OOOOOOOOOOOOOOOOOOOOoo..OOOO  ",
"..OOOO..$$OOOOOOOOOOOOOOOOOOoo..$$OOOOOOOOOOOOOOOOOOOOoo..OOOO  ",
"..OOOO..$$OOOOOOOOOOOOOOOOOOoo..$$OOOOOOOOOOOOOOOOOOOOoo..OOOO  ",
"..OOOO..$$OOOOOOOOOOOOOOOOOOoo..$$OOOOOOOOOOOOOOOOOOOOoo..OOOO  ",
"..OOOO..$$OOOOOOOOOOOOOOOOOOoo..$$OOOOOOOOOOOOOOOOOOOOoo..OOOO  ",
"..OOOO..$$oooooooooooooooooooo..$$oooooooooooooooooooooo..OOOO  ",
"..OOOO..$$oooooooooooooooooooo..$$oooooooooooooooooooooo..OOOO  ",
"..OOOO....................................................OOOO  ",
"..OOOO....................................................OOOO  ",
"..OOOOOOOOOOOOOOOOOOOOOOOOOOOOOOOOOOOOOOOOOOOOOOOOOOOOOOOOOOOO  ",
"..............................................................  ",
"..............................................................  "
};
