/* XPM */
static char *wall8[] = {
/* columns rows colors chars-per-pixel */
"64 64 195 2 ",
"   c #000000",
".  c #0B0704",
"X  c #040B05",
"o  c #100B07",
"O  c #130708",
"+  c #150E09",
"@  c #0A1109",
"#  c #14120B",
"$  c #1B140D",
"%  c #1C1312",
"&  c #1B1A14",
"*  c #281B18",
"=  c #162216",
"-  c #1A2618",
";  c #1B291A",
":  c #2B2218",
">  c #32271E",
",  c #33291E",
"<  c #351E23",
"1  c #392E22",
"2  c #3F2C2A",
"3  c #233322",
"4  c #293B27",
"5  c #2C3D2B",
"6  c #3E3125",
"7  c #323D2B",
"8  c #46292F",
"9  c #413327",
"0  c #443629",
"q  c #463A2C",
"w  c #493B2C",
"e  c #492B31",
"r  c #4A3734",
"t  c #4D3D32",
"y  c #533E37",
"u  c #2F412C",
"i  c #30422E",
"p  c #334530",
"a  c #3E4633",
"s  c #364A33",
"d  c #384D36",
"f  c #3A4F38",
"g  c #3C5239",
"h  c #464633",
"j  c #4D4332",
"k  c #454A3A",
"l  c #484B3B",
"z  c #534333",
"x  c #53443D",
"c  c #564938",
"v  c #5E4C3A",
"b  c #4E573E",
"n  c #41593E",
"m  c #51503A",
"M  c #5C533E",
"N  c #614E3C",
"B  c #64513E",
"V  c #603941",
"C  c #4C5240",
"Z  c #445E41",
"A  c #4C5D42",
"S  c #5B5544",
"D  c #5D5749",
"F  c #664B46",
"G  c #644C49",
"H  c #665440",
"J  c #6B5542",
"K  c #6D5944",
"L  c #665249",
"P  c #61594B",
"I  c #715B46",
"U  c #71524F",
"Y  c #755E49",
"T  c #6B5F53",
"R  c #765953",
"E  c #7A5A56",
"W  c #466143",
"Q  c #4A6546",
"!  c #4B6748",
"~  c #4D6A4A",
"^  c #576449",
"/  c #516E4D",
"(  c #53714F",
")  c #536155",
"_  c #547250",
"`  c #587753",
"'  c #5A7C56",
"]  c #5C7E58",
"[  c #6F624E",
"{  c #76604A",
"}  c #79634C",
"|  c #7E6651",
" . c #7C675C",
".. c #6C775B",
"X. c #825D5B",
"o. c #806651",
"O. c #846A53",
"+. c #896E57",
"@. c #84625D",
"#. c #88675E",
"$. c #8A6B5C",
"%. c #8E715A",
"&. c #93755D",
"*. c #97785E",
"=. c #896562",
"-. c #8B6B64",
";. c #916167",
":. c #97646B",
">. c #8B7965",
",. c #8C766B",
"<. c #967760",
"1. c #977860",
"2. c #997A62",
"3. c #98776F",
"4. c #99786F",
"5. c #9D7D75",
"6. c #A76875",
"7. c #AD6C79",
"8. c #B16F7D",
"9. c #A77C76",
"0. c #B5717F",
"q. c #5E825A",
"w. c #61855C",
"e. c #63895F",
"r. c #668C61",
"t. c #698E63",
"y. c #708360",
"u. c #6B9366",
"i. c #6D9769",
"p. c #6E9969",
"a. c #719D6D",
"s. c #74A16F",
"d. c #75A270",
"f. c #9B8369",
"g. c #9A836C",
"h. c #998975",
"j. c #A58569",
"k. c #A78669",
"l. c #B5906F",
"z. c #AB847A",
"x. c #B18779",
"c. c #A3967F",
"v. c #B69474",
"b. c #B89575",
"n. c #B79879",
"m. c #B89C7D",
"M. c #8D9C88",
"N. c #9D9A83",
"B. c #B38982",
"V. c #BB8A84",
"C. c #B88D89",
"Z. c #AB9B85",
"A. c #BD9087",
"S. c #B89F80",
"D. c #BD928D",
"F. c #96A38D",
"G. c #99AB95",
"H. c #A3AD96",
"J. c #BAAD90",
"K. c #B6B398",
"L. c #A4BDA6",
"P. c #A6BFA8",
"I. c #B3BBA2",
"U. c #C08D88",
"Y. c #C4978E",
"T. c #C9958F",
"R. c #CB9892",
"E. c #D39C96",
"W. c #D69E98",
"Q. c #D89F99",
"!. c #D3A29D",
"~. c #DBA39C",
"^. c #DFA7A0",
"/. c #DCABA4",
"(. c #E4AAA3",
"). c #E4ABA4",
"_. c #E9ADA6",
"`. c #E5B1AB",
"'. c #EEB1AA",
"]. c #F1B3AC",
"[. c #ECB7B1",
"{. c #F2BBB5",
"}. c #FBBAB3",
"|. c #F8BBB4",
" X c #F7BFB9",
".X c #B4C7AE",
"XX c #AEC9B0",
"oX c #B8D3BA",
"OX c #C1CDB2",
"+X c #C4DABF",
"@X c #FEC4BE",
"#X c #C1DEC3",
"$X c #C5E1C6",
"%X c #C6E4C9",
"&X c #C9EACF",
/* pixels */
"0.0.0.0.0.0.0.0.0.0.0.0.0.0.0.0.0.0.0.0.0.0.0.0.0.0.0.0.0.0.0.0.0.0.0.0.0.0.0.0.0.0.0.0.0.0.0.0.0.0.0.0.0.0.0.0.0.0.0.0.0.0.0.0.",
"}.}.}.}.}.}.}.}.}.@X@X@X@X}.}.}.0.@X}.}.}.}.}.}.}.}.@X@X@X}.}.}.}.}. .7 5 5 }.}.}.@X@X@X@X}.}.}.0.@X}.}.}.}.}.}.}.}.@X@X@X}.}.}.",
"@X@X@X@X@X@X@X}.}.}.}.}.}.@X@X@X0.@X@X@X@X@X@X@X}.}./.D D x x @.@XD u.a.a.a.x W.}.}.}.}.}.@X@X@X0.@X@X@X@X@X@X@X}.}.}.}.}.@X@X@X",
"}.}.}.}.}.}.}.}.}.}.@X@X}.}.@X@X0.}.}.@X@X@X@X@X@XE.c.q.q.' Z x B.q.a.d.d.d.' h.T.}.@X@X}.}.@X@X0.}.}.@X@X@X@X@X@X@X@X}.}.}.}.}.",
"}.}.}.}.}.}.}.}.}.}.}.}.}.@X}.@X0.@X}.}.}.}.@X@X_.4._ d.d.d.q.n s d.d.d.d.d.d.` >._.}.`.).[.).[.0.@X}.}.}.}.@X@X}.}.}.@X@X@X}.}.",
"@X@X@X@X@X}.}.}.}.@X@X@X@X@X@X@X0.@X@X@X}.}.}.}.f r.d.d.d.d.d.a.( d.d.d.s.d.d.d.u.7 @XP i 5     6.@X@X@X}.}.}.}.@X@X@X@X@X@X@X@X",
"@X@X}.}.}.}.}.}.}.}.}.}.}.}.}.@X0.}.}.@X@X@X{.}.k r.d.d.d.d.d.d.d.d.d.d.d.d.d.d.d.d.5 a.d.d.d.d.Z z.|.@X@X@X}.}.}.}.}.@X@X@X@X@X",
"}.}.}.}.@X@X@X@X}.}.}.}.}.}.}.}.0.}.}. . . . . .u.a.d.d.d.d.d.d.d.d.d.d.d.d.d.d.d.s.u.s.d.d.d.d.p.y.E }.}.}.}.}.}.}.}.}.}.}.}.}.",
"0.0.0.0.0.0.0.0.0.0.0.0.0.0.0.0.0.8.;.` ` ` _ n q.a.d.s.d.d.d.d.d.d.d.d.d.d.d.d.d.d.d.d.d.d.d.d.u._ < 0.;.;.:.0.0.0.0.0.0.0.0.0.",
"}.}.}.@X@X@X@X@X0.}.}.}.}.}.}.}.@X'.i d.s.s.a.' g r.s.d.d.d.d.s.d.d.d.d.d.d.s.d.d.d.d.d.d.d.d.a.' Z r  XC s ,. X@X@X@X@X@X}.}.}.",
"@X@X}.}.}.}.}.@X0.@X@X@X@X}.}.}.}.'.u s.s.d.d.d.d.w.q.s.d.d.d.d.d.d.d.d.d.d.d.d.d.d.d.d.d.d.d.( _ _ ( 5 ( _ ! p }.}.}.}.}.}.}.}.",
"@X@X@X@X}.}.}.}.0.}.@X@X@X@X@XT l A s.s.d.d.d.s.s.s.s.d.d.d.d.d.d.d.d.d.d.d.d.d.p._ d.' t.d.d.s.' _ _ ( _ _ Z * @X}.}.@X@X@X@X@X",
"}.}.}.}.@X@X}.}.0.}.}.}.).4.4.t.t.e.~ s.d.d.d.d.s.s.d.d.d.d.d.d.d.d.d.d.d.s.s.t.r.u.q.u.r.r.d.w.u.r.( _ ( _ Q % @X@X}.@X@X@X}.}.",
"}.}.@X@X@X}.}.}.0.@X@X).Y.~ ! a.s.a.~ s.d.d.d.d.d.d.d.d.d.d.d.d.s.d.d.d.d.d.p.] ' i.( u.r.` i.q.u.r.( _ _ ~ ^ -.}.}.}.@X@X@X@X@X",
"@X@X@X}.}.}.}.@X0.@X@Xg.~ d.s.d.d.d.d.d.d.d.d.s.d.d.d.d.d.d.d.s.d.d.d.d.d.s._ _ _ _ ( _ / _ / d.' _ _ _ _ p =.@X@X@X}.}.}.}.@X@X",
"}.}.}.}.@X@X@X@X0.}.}.4.~ d.d.s.d.d.s.d.d.d.d.d.d.d.d.d.d.s.d.s.d.d.d.d.s.4   Z _ _ 5         _ _ _ _ _ _ _ !   }.@X@X@X@X}.}.}.",
"0.0.0.0.0.0.0.0.0.0.0.U ! d.d.] r.d.d.d.d.s.d.d.d.d.d.d.d.d.s.s.d.s.s.e.n a.p./ u - s.a.s.p.p.= ! Q p s _ _ ( ~ < 7.0.0.0.0.0.0.",
"0.}.@X@X}.}.}.@X@X@X@X/.Z.' r.r.a.d.d.` ' r.d.d.d.d.s.d.d.d.i.t.d.e.' q.w.s.s.' ~ ' s.d.s.d.s.' Z Q q.q.W ! _ _   '.}.}.}.}.}.}.",
"0.}.}.@X@X@X@X@X}.}.}.}.^.R / a.d.s.p.d d ( p.d.s.s.s.a.d.a.r.q.s.( g ( s.s.d.r.q.s.d.d.s.s.d.d.W _ d.d.W ! / ! @ {.@X@X@X@X@X@X",
"0.@X}.}.}.}.}.}.}.}.}.}.@X@X5 a.d.p.5 _ ( Q s d.s.s.i.( d.' u.a.( ( g _ d.d.d.d.d.d.d.d.d.d.d.s.d.d.d.d.d./ i u p '.@X@X}.}.}.}.",
"0.@X}.@X@X@X@X@X@X@X@X@X/.p ( s.r.] d.5 ~ _ ( u i ! q.s.      ; _ _ g n ` s.s.d.d.s.s.s.s.s.d.d.' r.d.d.d.d.d.d.d.n A.}.}.}.}.@X",
"0.@X@X@X@X}.}.}.}.}.}.}.^.p _ ' r.p.] ~ ( _ _ ~ / s 4 s 0 J K B 3 3 = ; 4 ' s.d.p.q.q.q.q.q.d.q.u.t.q.d.q.' e.d.d.5 D.@X@X@X@X@X",
"0.}.@X}.}.}.}.}.}.}.}.|.~.i _ _ w.r.( _ _ _ _ _ _ n s s b H I I :   0 j j W u.u.e.( ( ( ( ` u.e.t.t.r.u._ _ ' t.w.9.Q.}.}.}.@X@X",
"0.}.}.}.@X@X@X@X@X@X@X@X/.S ( ( ( ( / / ( _ _ _ _ _ ( ( _ h B } j . J { } s ~ ( ( ( / / / / ( s.' q.a._ _ _ _ _ p '.{.}.}.}.}.}.",
"0.0.0.0.0.0.0.0.0.0.0.0.0.0.i 5 5 5     ~ _ _ _ _ _ ( _ _ j H } } w I } } } O n _ _       = _ _ _ ( ( ( _ _ _ _ _ d =.0.0.0.0.0.",
"}.}.}.}.}.}.@X@X@X}.}.@X/.k ( _ ( ( ( _ 3 @ @ X ( _ _ _ _ - 1 z } w I } { } # X @ # } } } K X X ! _ / X @ Z _ _ _ ; D.@X@X}.}.}.",
"@X@X@X@X}.}.}.}.@X@X@X}.^.p _ _ _ _ _ _ h j N H i u 5 i 5 N w 0 &.J +.O.} } # d Z Z 0 0 B } B B h 5 k W.E.-.i u u R.).}.}.}.}.}.",
"}.}.}.@X@X@X@X@X@X@X}.}.).,.! _ ( _ ! ( m M I } 9 9 6 6 9 I z 9 2.} &.&.O.B o k W Q B N Y | } B @.-.3.}.}.V.=.=.V {.@X@X@X@X@X@X",
"@X}.@X@X@X@X}.}.}.}.}.@X@X@Xi / ( / a ( _ ^ z } } } } } } } z 9 2.} &.*.&.  # # + * v.b.j.<.} + `.@X@X@X@X@X}.@X0.}.}.}.@X@X@X@X",
"}.}.}.}.}.}.}.}.}.@X@X@X@X@X}.D i R }.p 5 z. Xw w w t w w   I 2.*.2.2.*.f.b.b.b.b.n.v.2.2.&.  }.}.}.}.}.}.}.@X@X0.@X@X}.}.}.@X@X",
"}.}.}.}.@X@X@X@X@X@X@X}.}.}.}.].[.].}.'.'.{.}.'.7.].{.{.X $.*.1.2.2.*.&.} | l.b.l.2.2.0 > G ].}.}.}.}.}.}.}.}.}.0.}.@X@X@X}.}.}.",
"@X@X@X@X@X}.}.}.}.}.}.}.}.}.}.}.}.}.}.@X@X@X@X@X0.E.V.x.I &.1.1.2.2.*.&.+.N j.j.2.J J V.U.T.}.}.}.}.}.@X@X@X@X@X0.}.}.}.@X@X@X@X",
"0.0.0.0.0.0.0.0.0.0.0.0.0.0.0.0.0.0.0.0.0.0.0.0.7.E B B 4.2.2.1.2.2.1.2.&.c &.+.o.e 8 7.0.0.0.0.0.0.0.0.0.0.0.0.0.0.0.0.0.0.0.0.",
"}.}.}.}.}.}.}.}.}.@X@X@X@X}.}.}.0.@X}.}.}.}.}.}.z j.b.b.b.n.j.<.2.1.2.2.2.2.j * =.@X@X@X@X}.}.}.0.@X}.}.}.}.}.}.}.}.@X@X@X}.}.}.",
"@X@X@X@X@X@X@X}.}.}.}.}.}.@X@X@X0.@X@X@X@X@X@X0 l.v.J.%X%Xm.v.l.1.1.2.2.1.} o E.}.}.}.}.}.@X@X@X0.@X@X@X@X@X@X@X}.}.}.}.}.@X@X@X",
"}.}.}.}.}.}.}.}.}.}.@X@X}.}.@X@X0.}.@X@X@X~.-.j.l..X+X%X%XS.v.l.1.2.1.%.| z J Y 9.}.@X@X}.}.@X@X0.}.}.@X@X@X@X@X@X@X@X}.}.}.}.}.",
"}.}.}.}.}.}.}.}.}.}.}.}.}.@X}.@X0.@X}.}.~.9.B b.b.OX%X%X%XS.b.l.1.2.2.&.O.w Y N | T.}.}.}.@X}.@X0.@X}.}.}.}.@X@X}.}.}.@X@X@X}.}.",
"@X@X@X@X@X}.}.}.}.@X@X@X@X@X@X@X0.@X@X@X@.B O.m.l.OX$X%X#XS.b.v.g.2.2.2.&.t Y Y J %  X X@X@X@X@X0.@X@X@X}.}.}.}.@X@X@X@X@X@X@X@X",
"@X@X}.}.}.}.}.}.}.}.}.}.}.}.}.@X0.}.].i h o.n.&X2.j.J.%Xl.b.b.S.&Xv.*.1.2.2.t K J   i   V.}.}.@X0.}.}.@X@X@X}.}.}.}.}.@X@X@X@X@X",
"}.}.}.}.@X@X@X@X}.}.}.}.}.}.}.}.X.l k s.M M.#XX $XK.b.b.b.2.I.oX& $XZ.2.2.*.} v w i s.a.` U }.}.0.}.}.}.}.}.}.}.}.}.}.}.}.}.}.}.",
"0.0.0.0.0.0.0.0.0.0.0.0.0.0.0.E ..e.e._ *.F.XX  XXZ.j.j.j.1.H.P.  XXc.1.<.O.m h n r.d.e.n e 0.0.0.0.0.0.0.0.0.0.0.0.0.0.0.0.0.0.",
"}.}.}.@X@X@X@X@X0.}.}.}.}.}.}.P w.s.s.w S.K.L.) G.h.%.1.+.1.N.G.) P.N.g.%.K ~ g ! s.p.q.! P ~.}.@X@X@X@X@X@X@X@X@X@X@X@X@X}.}.}.",
"@X@X}.}.}.}.}.@X0.@X@X@X@X}.}.P w.s.s.0 oXoXL.L.2.J H 1.q &.<.g.L.XXL.F.{ 5 s./ ~ d.( a.r.~   }.}.}.}.}.}.}.}.}.}.}.}.}.}.}.}.}.",
"@X@X@X@X}.}.}.}.0.}.@X@X@X@X@XD Z ( ( w G.L.L.*.w O.$.w 2.z } 2.&.L.P.F.} 5 s.e.q.d.d.' _ _ _   `.}.}.}.}.}.}.@X@X}.}.@X@X@X@X@X",
"}.}.}.}.@X@X}.}.0.}.}.}.}.}.}.].z.g _ q 1.g.g.1.&.*.1.&.2.*.&.2.<.g.>.[ t w l j j b l j ^ ( (   (.@X@X@X@X@X}.@X@X@X}.@X@X@X}.}.",
"}.}.@X@X@X}.}.}.0.@X@X}.}.}.}.}.B.p f > H J J H J J J J J J J J J Y H H H } | } Y N B B m ^ _   (.}.@X@X@X@X}.}.}.}.}.@X@X@X@X@X",
"@X@X@X}.}.}.}.@X0.@X@X@X@X@X}.}.B.7 w w w w w w w 0 w 0 w w w w w N v J o.1.2.*.&.} } } B c ~ F (.}.}.}.@X@X@X@X@X@X}.}.}.}.@X@X",
"}.}.}.}.@X@X@X@X0.}.}.}.@X@X@X@Xx.w b.b.v.v.b.v.b.b.b.b.b.v.b.b.b.b.2.2.2.2.2.O.Y } } } } I   @X}.}.}.}.}.}.}.}.}.@X@X@X@X}.}.}.",
"0.0.0.0.0.0.0.0.0.0.0.0.0.0.0.0.X.1 <.<.l.v.b.b.v.b.l.2.2.2.2.&.2.*.2.2.*.} } } } } { } } I   0.0.0.0.0.0.0.0.0.0.0.0.0.0.0.0.0.",
"0.}.@X@X}.}.}.@X@X@X@X@X@X@X-.E y $ w o.2.2.j.2.2.2.2.2.2.&.2.2.2.o.o.o.} } 6 1 1 6 } { v L `.}.}.}.}.@X@X@X@X@X@X}.}.}.}.}.}.}.",
"0.}.}.@X@X@X@X@X}.}.}.}.].R.Y t , $ j v R o.Y %.+.%.&.&.+.%.%.+.%.v H J H B N N v v F v #.x.}.}.}.@X}.}.}.}.@X@X@X@X@X@X@X@X@X@X",
"0.@X}.}.}.}.}.}.}.}.}.}.).t 2.| c , Y $ $ $ : Y Y Y Y Y } I } } { . w w 0 . &.2.2.1.  2 T.@X@X@X@X@X@X@X@X}.}.}.}.}.@X@X}.}.}.}.",
"0.@X}.@X@X@X@X@X@X@X@X@X/.o 2.2.O.I   } } } Y                     w I v $ } &.2.1.1.  {.@X}.}.}.}.}.}.}.}.@X@X@X@X}.}.}.}.}.}.@X",
"0.@X@X@X@X}.}.}.}.}.}.}.~.o 2.1.1.&.} o K } } Y Y } } Y I } } K q { { B * 2.2.2.&.}   '.}.@X@X}.}.}.}.@X@X@X@X@X@X@X@X@X@X@X@X@X",
"0.}.@X}.}.}.}.}.}.}.}.}.].R.v &.2.*.} B t J &.+.&.+.&.%.%.} } I w { z z H 2.2.2.&.}   '.}.}.@X@X@X@X@X@X@X}.}.}.}.}.}.}.}.}.@X@X",
"0.}.}.}.@X@X@X@X@X@X@X@X@X}.  &.2.*.o.} w N O.O.&.*.*.*.2.o.| } c K , z o.2.2.&.%.}   {.@X}.}.}.}.}.}.}.}.}.@X@X@X@X}.}.}.}.}.}.",
"0.0.0.0.0.0.0.0.0.0.0.0.0.0.  &.1.1.1.} } N   O } %.1.*.2.2.O.} } w % N 2.2.*.2.<.Y   7.0.0.0.0.0.0.0.0.0.0.0.0.0.0.0.0.0.0.0.0.",
"}.}.}.}.}.}.@X@X@X}.}.@X@X@X}.r I 2.2.2.| v r @XO                     N 2.2.1.2.%.Y   {.@X@X}.}.}.}.}.}.}.}.@X@X0.@X@X@X@X}.}.}.",
"@X@X@X@X}.}.}.}.@X@X@X}.}.}.}.'.9.y 2.2.| v r }.7.'.'.'.'.'.'.'.{.{.R z } 2.2.O.I 1 {.}.}.}.}.}.}.}.}.}.}.}.}.}.0.}.}.}.}.}.}.}.",
"}.}.}.@X@X@X@X@X@X@X}.}.}.@X@X}.^.B.J J v #.U.}.0.@X@X@X@X@X@X@X}.}.T.5.v +.%.H E D.}.}.}.@X@X}.}.@X@X}.}.}.}.}.0.@X@X@X@X@X@X@X",
"@X}.@X@X@X@X}.}.}.}.}.@X@X@X@X@X@X[.F G G C.}.@X0.}.}.}.@X@X@X@X@X}.@X!.G Y I J 4.}.}.@X@X@X@X@X@X@X@X@X@X@X}.@X0.}.}.}.@X@X@X@X",
"}.}.}.}.}.}.}.}.}.@X@X@X@X@X}.}.}.}.}.}.}.}.@X@X0.@X@X}.}.}.@X@X}.}.}.}.].    E.}.@X@X@X@X@X}.}.}.}.}.}.}.}.@X@X0.@X@X}.}.}.@X@X",
"}.}.}.}.@X@X@X@X@X@X@X}.}.}.}.}.}.}.}.}.}.}.}.}.0.}.@X@X@X}.}.}.}.}.}.}.@X@X@X@X@X@X@X}.}.}.}.}.}.}.}.}.}.}.}.}.0.}.@X@X@X}.}.}.",
"@X@X@X@X@X}.}.}.}.}.}.}.}.}.}.}.}.}.}.@X@X@X@X@X0.}.}.}.@X@X@X@X@X@X@X@X@X}.}.}.}.}.}.}.}.}.}.}.}.}.}.@X@X@X@X@X0.}.}.}.@X@X@X@X"
};
