/* XPM */
static char *wall6[] = {
/* columns rows colors chars-per-pixel */
"64 64 168 2 ",
"   c #2E1B19",
".  c #2F231A",
"X  c #34211E",
"o  c #333C1E",
"O  c #2C2027",
"+  c #2A2C28",
"@  c #3C2B26",
"#  c #33242A",
"$  c #3C292C",
"%  c #3F2C35",
"&  c #3E3237",
"*  c #432D2A",
"=  c #452F31",
"-  c #473234",
";  c #4A3334",
":  c #4D3C35",
">  c #443439",
",  c #493638",
"<  c #4E3A3E",
"1  c #533939",
"2  c #583E3C",
"3  c #33491E",
"4  c #3C4829",
"5  c #3B5324",
"6  c #3E5826",
"7  c #3F5828",
"8  c #45442C",
"9  c #414E2A",
"0  c #41552A",
"q  c #425D2A",
"w  c #434D30",
"e  c #4A4E36",
"r  c #4E4F3A",
"t  c #57403C",
"y  c #5C413E",
"u  c #534F3E",
"i  c #4A5335",
"p  c #465932",
"a  c #54523E",
"s  c #535B3C",
"d  c #45612B",
"f  c #4A652F",
"g  c #4B682F",
"h  c #4A6633",
"j  c #4E6B32",
"k  c #506535",
"l  c #516C36",
"z  c #54623C",
"x  c #556B39",
"c  c #537236",
"v  c #567339",
"b  c #577839",
"n  c #5B7C3C",
"m  c #463941",
"M  c #4F3A40",
"N  c #503D41",
"B  c #583F40",
"V  c #564043",
"C  c #5E4544",
"Z  c #5E4945",
"A  c #55454D",
"S  c #565241",
"D  c #5B5245",
"F  c #5D5F45",
"G  c #5E5548",
"H  c #584552",
"J  c #604646",
"K  c #644946",
"L  c #604748",
"P  c #674D4D",
"I  c #684E4E",
"U  c #605041",
"Y  c #6C524E",
"T  c #635A4C",
"R  c #665650",
"E  c #6B5252",
"W  c #6C5A54",
"Q  c #67525A",
"!  c #68545C",
"~  c #715752",
"^  c #735A55",
"/  c #775E5E",
"(  c #785E5F",
")  c #5C6443",
"_  c #5D6C42",
"`  c #547644",
"'  c #567A46",
"]  c #5E7841",
"[  c #69674F",
"{  c #646A4A",
"}  c #637B45",
"|  c #6E6155",
" . c #706057",
".. c #726058",
"X. c #7B625D",
"o. c #695361",
"O. c #7E6463",
"+. c #7A626B",
"@. c #7F6575",
"#. c #826461",
"$. c #896563",
"%. c #816862",
"&. c #99606C",
"*. c #896C7D",
"=. c #8D7773",
"-. c #917B77",
";. c #92757F",
":. c #A66775",
">. c #B26F7D",
",. c #B5717F",
"<. c #5E823D",
"1. c #63893F",
"2. c #5F8345",
"3. c #638543",
"4. c #668A45",
"5. c #688C47",
"6. c #678C4F",
"7. c #6A8D49",
"8. c #6E9746",
"9. c #6D924A",
"0. c #72974E",
"q. c #729A4D",
"w. c #688F50",
"e. c #769B51",
"r. c #789E53",
"t. c #7BA256",
"y. c #97807C",
"u. c #98817D",
"i. c #AE817E",
"p. c #967983",
"a. c #987A83",
"s. c #9E7D90",
"d. c #A07F86",
"f. c #B67483",
"g. c #9F8984",
"h. c #9D808A",
"j. c #A1838C",
"k. c #A48E8A",
"l. c #B58682",
"z. c #B88D8A",
"x. c #AA9591",
"c. c #AF9995",
"v. c #BD9193",
"b. c #B29D99",
"n. c #B6A09C",
"m. c #BD8EA2",
"M. c #BA95A0",
"N. c #BB99A4",
"B. c #BF95AB",
"V. c #C7938E",
"C. c #C099AF",
"Z. c #C19AB0",
"A. c #DCB1BD",
"S. c #E6AAA4",
"D. c #E9B4AE",
"F. c #F2B4AD",
"G. c #E2B4BF",
"H. c #EAB7BD",
"J. c #ECB8BD",
"K. c #FBBAB3",
"L. c #F7BFB9",
"P. c #FEC4BE",
"I. c #DEB6C1",
"U. c #E2B6C2",
"Y. c #E3BBC6",
"T. c #ECBDC4",
"R. c #E4BBC8",
"E. c #F1BFC2",
/* pixels */
",.,.,.,.f.>.&.M > > > > > > > > > > > > > > > > & + + & > > > > > > > > > > > > > > > & > > > > m > > > > > > M &.>.f.>.>.f.>.,.",
"K.K.K.K.K.S.V / / / / / / / / / / / / / / / / / W w d T W ^ X./ / ../ / / / / / / / O./ / / W / / / / / / / / / N S.P.P.P.K.K.K.",
"P.P.P.P.P.D.M W / / / / / / / / / / / / / / / / w q 5.h 0 T / X./ / / / / /  ......./ / / / / / / / / / / / ( ! N S.K.K.K.P.P.P.",
"K.K.K.K.K.S.M / / / / / / / / / / / / / / / O.W e 7 g j 4.c T ../ O./ / /  .x v l k  ./ / / O./ / / / / / ( ( / N D.P.K.K.K.K.K.",
"K.K.K.K.K.S.M / / / / / / / / / O./ / / / / / / / ^ e 2.<.1.b G / X./ / | v 4.e.5.j  ./ / / / / / / / / / / / / 1 S.K.P.P.P.K.K.",
"P.P.P.P.P.S.M W / / / / / O./ / / ( / / / / / / / / r j j c 1.b D / / R z e.4.9.t.v  .X./ / / / / / / / / / / W M D.P.P.P.P.P.P.",
"P.P.K.K.K.S.1 / O./ / / / / / / / / / / / / / / / / W r <.8.1.d S / W s 3.6.4.6.7.x W O.( / / / / / / O./ / / / M S.K.P.P.P.P.P.",
"K.K.K.K.P.D.M / / / / / / / / / / / / / / / / O./ / ( W k 1.<.6 D / R j e.4.4.e.v [ X./ / ( / / / / / / / / / / M S.K.K.K.K.K.K.",
"f.>.>.f.f.:.> W / / / / ( / ( / ( / / ( / / / r r r r r 4 d d S / W i j 3.e.4.v | / / / / / / / / ( ( / ( / / ^ > :.,.,.,.,.,.,.",
"K.K.K.P.P.D.M / / / / / / / / / / / / ( / S s <.n <.n <.3.n q D R s 2.9.<.] v R / X./ / +./ / / / / / / / / ( ! M D.P.P.P.K.K.K.",
"L.P.K.K.K.S.1 / / / / / O./ ( / ( / ( W F <.b 8.7.8.8.8.q.8.2.z z 3.e.9.4.9.9.{ / / / / ( / / / / ( ( / / / / / M S.K.K.K.K.K.K.",
"P.P.P.P.K.S.m / / / / / / / ( / / / ( W F c c b b b <.c c 9.e.<.n t.t.6.e.e.0.7.{ ../ / / / ( ( / / / / / ( / / V S.K.P.P.P.P.P.",
"K.K.K.K.P.D.M ^ / / ( / / / / / / / O./ / S 7 q 3.5.5.v 5 v e.5.v 5.3.9.t.9.0.0.v  .( / / / / / / / / / / / / W M D.K.P.P.P.K.K.",
"K.K.P.P.P.S.M / ( ( / / / / / / / / / / /  .x 3.e.r.r.0.j 4 v v 6 p s n 5.2.9.n j  ./ / / ( ( / O./ / / / / / / < S.K.P.P.P.P.P.",
"P.P.P.K.K.S.m / / / / ( / / / / / / / / / [ 3.r.6.9.5.t.2.5 7 h 5 S W a ) ) ) ) ) ../ ( / / ( ( / / / / O./ / / V D.K.K.K.K.P.P.",
"K.K.K.K.P.D.N / / ( / ( / / / / / / / / | v e.4.4.t.9.t.2.7 ' ` 3 s / / | | X./ / / / / ( / / / / / / / / / / W < D.P.P.P.K.K.K.",
"f.>.>.f.>.:.= / / / / / / / / / / / / / [ v 4.9.5.t.9.0.} 0 ' ' f v _ [ v ] | X./ / / / / ( / ( / / ( / ( / / / % :.f.,.,.,.,.,.",
"f.K.P.P.K.S.< / / / / / / / / / / / / | v 5.6.t.9.e.4._ | S ' 2.3.e.3.c 3.e.] | / / / / / / / / / / ( / / / ( / M S.K.K.K.K.K.K.",
">.K.K.P.P.D.N ^ / / / / / O./ / / / (  .b e.5.e.3.x x | / u ` w.n 3.t.2.n 5.e.]  ./ / / ( / / / / / / / ( / ( ! M D.P.P.P.P.P.P.",
",.P.K.K.K.S.M ^ / / / / / / / / / / /  .l x x x x | / K 2 8 ` 6.n 2.t.9.0.v 5.t.v  ./ O./ / ( / ( / ( / / / / / M S.P.P.K.K.K.K.",
"f.P.K.P.P.D.N / / / O./ / +./ ( / / / / / ../ ../ ^ K * X o o x c 6 2.e.3.c 3.3.x  .O./ / / / / / / / / / / ( / N S.K.K.K.K.K.P.",
">.P.P.P.P.S.N o./ / / / / / / / / / / / / / / / / K t @   .   k v o 9 c l j j x k ../ / / / / / / ( / / / / ( W N D.P.P.P.P.P.P.",
"f.K.P.K.K.S.N / / / / / / / ( / / / / / / / / / / K / C ; @   o o @ : D ..U  .W  ./ / / / / / / / / / / / / ( / < S.K.K.K.K.P.P.",
">.K.K.K.P.D.N ^ / / / / / / / / / / / / X./ / / X.K x.=...K ; ; ; Z X.=.x.K Z / / / / / / / / / O./ / / / / / / N D.K.K.K.K.K.K.",
">.f.,.,.f.:.= W / ( / / ( / / / / / / / / ( / O./ K -.c.n.-.^ / ^ -.b.c.-.y y / / / / ( / / O./ / / / / / / / / > :.>.f.>.,.,.,.",
"K.K.K.K.K.S.M / / / / ( / / / ( O./ / / / ( / / / J X.u.g.x.b.b.b.x.k.y.X.y 2 ^ / / / / ( / / / / / / / / / / ! > D.P.P.P.K.K.K.",
"P.P.P.P.K.S.M / / / / ( / ( / / / / / / / / / / / K X.O.#.u.k.k.k.y.%.%.( C B / / / / / / ( / / / ( / / / / / / = S.K.K.K.K.K.K.",
"K.K.K.P.P.D.M ^ ( ( / / / / ( / / / / / / ( / ( / C Y ~ X.%.O.#.%.%.X.~ Y 2 B ^ / / / / / / / ( / / / / / / / / > D.P.P.P.P.P.P.",
"P.K.P.P.P.D.m / / ( / ( / / / ( / / / / / / / / / P V 2 Y ^ ~ ~ ~ ^ I 2 2 1 2 ^ / / O./ / / / ( X./ / ( / / ( / > S.K.K.P.P.P.P.",
"K.K.K.K.K.S.M / / / / ( / ( / ( / / O./ / / / / / / I K y 2 2 2 2 2 2 1 1 1 P / ( / / / ( ( / / / ( / / / ( / o.= D.P.K.K.K.P.P.",
"K.K.K.K.P.D.1 ^ ( ( / / / / ( / / / / / / / / / / / / / Y Z B 1 1 1 1 2 Z P / / / / / ( / / / ( / ( ( / ( / ( ^ > S.P.P.P.K.K.K.",
"P.P.P.P.P.S.M / / / / ( ( / / / / / ( / / / / / / / / / / / E C C Z V P / / / / ( / / / / ( / ( / / / ( ( ( ( ^ > S.K.K.P.P.P.P.",
"f.>.>.f.>.:.> / ( / / ( / ( / / / / / O./ / / / / / / / / O.( / / / / / ( / ( / ( / / / / / / / / / / / / / / ! > :.f.f.>.f.>.>.",
"K.K.K.K.K.S.M W / / ( / / / ( ( / / / / ( / ( / ( / / / / / / / / / / ( / / ( / / / / ( / ( / / / / / / / / / / N S.P.P.P.K.K.K.",
"P.P.P.P.P.D.M / / ( ( / ( / / / / / ( / / / / ( / / / / / / / ( / / / / / / / / / ( / / / / / / / / ( / / / / / 1 S.K.K.K.P.P.P.",
"K.K.K.K.K.S.M / / / / / ( / ( / / / / / / ( / / ( / / / / / / ( / / / / ( / ( / / / ( / O./ / / / ( / / / / / / M D.P.K.K.K.K.K.",
"K.K.K.K.K.S.< W ( / / ( / / / / / / / / / / / / / ( / / / ( / / ( / ( / / / / / / ( / ( / ( / / ( / / / / / / W 1 S.K.P.P.P.K.K.",
"P.P.P.P.P.S.< / / ( / / / / / / / / / / / / / / / / / ( / / / ( / / / / / ( / ( / ( / / / / ( / / / / / / / / / M D.P.P.P.P.P.P.",
"P.P.K.K.K.S.< / / / +./ / / / / / / / ( / / / / / O./ / / / / / / ( ( / / ( / / / / ( / ( / / / ( / / O./ / / / M S.K.P.P.P.P.P.",
"K.K.K.K.P.D.< P E E E E E E E E E E E E E E E E E E E E E E E E E E E E E E E E E E E E E E E E E E E E E E E I M S.K.K.K.K.K.K.",
">.,.>.f.>.:.= L P P P P P E P P E P P P P P P P P P P P P P I P I I P P P P P P P P E P P P P P P P P P P P P P % :.,.,.,.,.,.,.",
"K.K.K.P.P.D.M P P P P P P P P I P P P P P I P P P P P I I P P I I I P I P P P P P P P P P P P P I P P P P P P P m D.P.P.P.K.K.K.",
"P.P.K.K.K.S.> P P I I I P P P I I E P I I P E P I I P Y I I I I I I I I E P I I I I P P P E P E I I P P I I I K > S.K.K.K.K.K.K.",
"P.P.P.P.K.D.l.M M , , M M M , M < , , , , , , , , , , , , , , > , , , > , > , , , , , , , , < , < < < < , , < N z.F.K.P.P.P.P.P.",
"K.K.K.K.P.P.F.l.#.d.a.B # $ $ % # o.j.j.j.j.j.j.j.j.j.j.j.j.j.s.j.d.h.j.j.j.d.j.*.d.j.h.j.! O % $ $ # A h.j.i.z.K.P.K.P.P.P.K.K.",
"K.K.P.P.P.K.K.K.f.Y.U.+.- 1 < 1 $ +.N.M.N.N.M.N.M.b.M.B.N.N.M.N.M.M.N.N.N.N.M.M.s.B.N.M.M.+.$ 1 < 1 = @.Y.T.K.K.K.K.K.P.P.P.P.P.",
"P.P.P.K.K.K.K.P.f.T.I.+.= < 1 1 - # # # # # # # # # # # # # # # # # # # # # # # # # # # # # = 1 1 1 = +.Y.Y.P.P.P.P.K.K.K.K.P.P.",
"K.K.K.K.P.P.P.P.f.G.G.+.= 1 1 1 1 1 < 1 1 1 1 1 1 1 1 1 1 1 1 1 1 1 1 1 1 1 1 1 1 1 1 1 2 1 1 1 1 < = ( I.U.K.K.K.P.P.P.P.K.K.K.",
",.,.,.,.,.,.,.,.f.C.B.o.= 1 1 1 , ; ; ; ; ; ; ; ; ; ; ; ; ; ; ; ; ; ; = ; ; ; ; ; ; ; = ; ; ; 1 1 1 = o.C.B.f.f.>.f.f.>.f.>.,.,.",
",.K.P.P.K.K.K.P.P.Y.U.+.= 1 1 1 - m Q Q ! ! ! ! ! Q Q Q Q Q Q Q H Q o.Q Q Q Q Q ! ! ! Q ! m = 1 1 1 = +.Y.R.L.P.L.K.K.K.K.K.K.K.",
",.K.K.P.P.P.P.P.K.H.A.+.= 1 1 1 $ p.A.A.A.A.I.I.I.I.I.I.I.I.I.I.B.A.I.I.I.I.I.I.I.A.A.A.I.p.$ 1 1 1 = +.I.U.P.P.P.P.P.P.P.P.P.P.",
",.P.K.K.K.K.K.K.K.G.U.+.= 1 1 1 $ a.Y.Y.Y.U.U.U.U.U.Y.Y.U.U.Y.U.B.Y.U.U.U.U.U.U.U.U.U.U.Y.p.* 1 1 1 = +.I.U.K.K.K.K.P.P.K.K.K.K.",
",.P.K.P.P.P.P.P.L.T.Y.+.= 1 1 1 $ p.U.U.U.Y.Y.Y.Y.U.U.U.U.U.U.Y.Z.R.Y.Y.Y.Y.Y.R.U.R.R.U.Y.a.$ 1 1 1 = +.G.Y.P.P.P.K.K.K.K.K.K.P.",
",.P.P.P.P.K.K.K.K.U.A.+.= 1 1 1 $ p.U.Y.Y.Y.Y.R.Y.Y.Y.Y.Y.Y.Y.Y.B.R.Y.Y.Y.U.U.I.U.U.U.Y.U.a.$ 1 1 1 = +.U.Y.P.P.P.P.P.P.P.P.P.P.",
",.K.P.K.K.K.K.K.K.U.I.+.= 1 1 1 $ a.R.R.Y.U.U.U.U.U.I.U.U.U.R.Y.B.U.Y.U.U.U.U.U.U.U.U.U.U.a.$ 1 < 1 = +.Y.H.K.K.K.K.K.K.K.K.P.P.",
",.K.K.K.P.P.P.P.P.R.Y.+.= 1 1 1 $ p.U.I.U.U.R.R.Y.Y.Y.U.U.U.I.U.B.U.U.U.Y.Y.R.Y.Y.Y.Y.R.Y.;.$ 1 1 1 = +.G.U.P.P.P.P.K.K.K.K.K.K.",
",.,.,.,.,.>.,.>.f.C.B.o.= 1 1 1 $ *.B.B.C.C.B.B.B.B.B.B.Z.B.B.B.B.Z.B.B.Z.B.B.Z.B.B.Z.B.Z.@.$ 1 1 1 = ! B.B.f.,.>.,.>.,.,.,.,.,.",
"K.K.K.K.K.K.P.P.E.H.U.+.= 1 1 1 $ p.G.I.U.U.Y.Y.Z.R.R.Y.R.U.Y.U.Y.R.U.U.Y.Y.R.R.Y.U.Y.R.R.p.$ 1 1 1 = +.G.U.P.P.>.P.P.P.P.K.K.K.",
"P.P.P.P.K.K.K.K.L.T.U.+.= 1 1 1 $ p.U.U.U.U.U.Y.B.R.U.U.Y.U.I.Y.Y.Y.Y.Y.U.I.U.U.Y.Y.Y.U.Y.p.$ 1 1 1 = +.A.U.K.K.f.K.K.K.K.K.K.K.",
"K.K.K.P.P.P.P.P.P.R.U.+.= 1 1 1 $ a.R.U.U.U.U.U.B.R.Y.Y.Y.Y.Y.Y.U.U.I.R.Y.R.Y.Y.Y.R.U.U.Y.p.$ 1 1 1 = +.G.U.K.K.,.P.P.P.P.P.P.P.",
"P.K.P.P.P.P.K.K.K.J.G.@.= 1 1 1 $ p.Y.Y.Y.Y.U.Y.B.Y.Y.U.Y.Y.Y.Y.Y.U.Y.R.Y.R.U.I.U.U.U.Y.R.p.$ 1 1 1 = +.U.E.K.P.,.K.K.K.P.P.P.P.",
"K.K.K.K.K.K.K.K.K.P.E.+.= 1 1 1 $ p.U.U.U.I.Y.Y.Z.R.R.I.U.Y.Y.Y.I.U.I.U.U.U.U.U.U.U.R.Y.R.p.$ 2 1 1 = O.J.K.P.P.,.P.P.K.K.K.P.P.",
"K.K.K.K.P.P.P.P.P.P.L.l.C = = , I v.H.H.H.H.H.H.m.H.T.T.T.H.H.H.H.H.H.H.T.T.T.T.T.T.T.H.T.v.I = = = J l.K.K.K.K.,.K.P.P.P.K.K.K.",
"P.P.P.P.P.K.K.K.K.K.K.K.l.$.$.$.V.K.K.P.P.P.P.P.f.K.K.K.P.P.P.P.P.P.P.P.P.K.K.K.K.K.K.K.K.K.V.$.$.$.l.P.P.P.P.P.,.K.K.K.P.P.P.P."
};
